<svg xmlns="http://www.w3.org/2000/svg" viewBox="0 0 3396 2627" preserveAspectRatio="xMidYMid slice" > <defs><style>.cls-1{fill:#ffddd2;}.cls-2{fill:#cd9a8a;}.cls-3{fill:#fff;}.cls-4{fill:#c9c4d9;}.cls-5{fill:#a8a4b5;}.cls-6{fill:#bcd8e8;}.cls-7{fill:#f7f7f7;}.cls-8{fill:#c1bdd0;}.cls-9{fill:#cbc6da;}.cls-10{fill:#b3afc1;}.cls-11{fill:#826957;}.cls-12{fill:#947863;}.cls-13{fill:#9e806a;}.cls-14{fill:#727681;}.cls-15{fill:#a4aab9;}.cls-16{fill:#3a3c42;}.cls-17{fill:#9399a6;}.cls-18{fill:#838893;}.cls-19{fill:#2c241e;}.cls-20{fill:#945524;}.cls-21{fill:#73390d;}</style></defs><g id="background"><rect id="wall" class="cls-1" x="3" width="3392" height="2626"/><path id="floor" class="cls-2" d="M3393,1671c-195-1-502,6-878.18-3-51.31-1.23-100.41-1.72-152.3-.19-52.42,1.45-110.86,4.91-165,3.68-90.61-1.63-181.09,1-271.73-1-50.87-.41-101.34,4.43-151.8,4.51-91.92-1.8-181.38-.2-273.58,2.56-45.52,2-91.08-.5-136.6.9-89.15,3.29-180.18,1.38-269.67,1.23-83.36,2.2-165-3.29-248.23-2.36-31.72,1.45-63.28-1.25-95.22-1.38C315,1674-3,1687-3,1687l3,939,3393,1Z" transform="translate(3)"/></g><g id="poster"><path id="poster-background" class="cls-3" d="M1996,908c6,1.91,1,44,0,72s1.21,46.91,0,81c-.45,30.39.85,50.71,0,81-.15,20.89.91,35.86,0,57-.37,2.78,1,6-5,6-32,0-45.71,1.23-67,0-17.47-1.54-62-1-83-.09-11.49.5-54,.1-60,.09-3.89-.11-11.4.11-15,0s-4.3-4.47-4-9c.5-10.52-.22-21.28,0-32,.6-29,.1-55.09,0-85-.07-24.42.07-47,0-72-.06-30.34-.65-51.7,0-93,0-2.72,1-6,4-6,4,0,18.82.13,23,0,22.23-1,41.92,1.19,63,0S1975.43,901.43,1996,908Z" transform="translate(3)"/><path id="pin4" class="cls-2" d="M1981,1190c-2.53.69-3.85,2.57-3,6,.61,2.45,3,4,6,3,2.48-.83,3-3.84,2-6S1983.53,1189.31,1981,1190Z" transform="translate(3)"/><path id="pin3" class="cls-2" d="M1777,1197a4.71,4.71,0,0,1-7,0c-1.79-1.79-.94-4.68,0-6,1.52-2.13,5.28-1.63,7,0A4,4,0,0,1,1777,1197Z" transform="translate(3)"/><path id="pin1" class="cls-2" d="M1772,925c1.72,2,4.28,2.25,7,0,2-1.61,2.08-4.79,1-6-1.74-2-5.47-2.8-7-1S1770.28,923,1772,925Z" transform="translate(3)"/><path id="pin2" class="cls-2" d="M1982,925c-2.26-1.33-3.72-3.91-2-7,1.23-2.21,4.61-1.84,6-1,2.24,1.35,3,5,1,7C1986,925,1984.26,926.33,1982,925Z" transform="translate(3)"/></g><g id="lanyard"><path id="ra-lanyard" class="cls-4" d="M1985,1191.43a79,79,0,0,1,3.54,11.62c.58,2.86,1.09,5.7,1.45,8.69.4,3.32.56,6.77.74,10.16.15,3,.16,6,.19,9s-.08,6.16-.15,9.22c-.75,40.71-5.44,81.16-11.66,121.33-2.39,18.8-10,8.74-5.65-3.88,6.06-39.41,10.76-79.2,11.35-119.17.06-2.5.14-5,.11-7.5,0-2.66-.07-5.3-.15-8,0-1.76-.16-3.51-.28-5.26-.18-2-.39-4-.68-5.94-.26-1.7-.58-3.35-.91-5-.56-2.36-1.35-7.57-1.94-9.75-.66-2.46-3.8-3-4.81.16-.57,1.55-1,6.2-1.45,7.94s-.69,3.29-1,5c-.39,2.52-.73,5-1.06,7.6-.55,4.35-.86,8.82-1.17,13.26-.4,6.07-.69,12.15-1,18.24-2.18,39.82,3.21,79.74,1.32,119.58,0,7.44-6,7.5-6,0,0-12.27-.94-24.46-1.14-36.73,0-30.65-1.81-61.31.23-91.92q.54-10.29,1.42-20.49c.25-3,.63-5.88,1-8.8s.83-5.58,1.41-8.22a72.17,72.17,0,0,1,2-7.86,26.92,26.92,0,0,1,1.77-4.08C1975.77,1184.91,1982.82,1185.54,1985,1191.43Z" transform="translate(3)"/><path id="ra-id" class="cls-5" d="M1950.15,1355.3c5.18.24,49.11-2.69,49.74,4.52.68,7.76,1.1,15.93,1.15,23.51-.21,3,1.4,7.47-2.17,8.93-8.64,1-16.3-1.85-25.17-1.91-8.12-1.11-16.87.39-24.62-2.47-3.26-4.06-1-10.34-2-15.31.74-5.49-3.67-14.68,3.07-17.27Z" transform="translate(3)"/></g><g id="skyline"><path class="cls-6" d="M1171.22,895.72c2.42.21,4.89.57,7.26.91l.48.07c2.33.35,4.67.79,6.94,1.22l1.49.27c1.94.37,3.89.71,5.84,1l2.74.48c5,.89,10.18,1.68,15.16,2.45l1.82.28c3,.39,5.94.76,8.92,1.13l4.39.55,3.09.39c3.19.4,6.48.82,9.72,1.18,6.82.74,13.76,1.3,20.47,1.84l7.54.61c3.46.29,6.91.61,10.37.93,6,.56,12.24,1.13,18.38,1.54,8,.54,16.16.55,24.06.56h4.26l2.78,0q5.58,0,11.15,0c3.65,0,7.37.2,11,.36l2.82.12,4.32.18q11.37.48,22.73,1c10.71.51,20.17,1.18,28.91,2,2.58.25,5.15.46,7.73.68l5.25.46,4.86.45,4.59.43a24.43,24.43,0,0,0-3.73,1.65,16.69,16.69,0,0,0-3.74,2.74,13.19,13.19,0,0,0-2.58,3.48l-.22.46c-.11.24-.22.48-.32.72a40.73,40.73,0,0,0-19.29-6.39c-1.08-.08-2.17-.12-3.24-.12a42.51,42.51,0,0,0-7.59.67,31.84,31.84,0,0,0-5,1.25,26.47,26.47,0,0,0-4.88,2.13,19.35,19.35,0,0,0-4.17,3.07,22.32,22.32,0,0,0-3.31,4.2,38.8,38.8,0,0,0-2.15,4.27l-.16.34a26.52,26.52,0,0,1-1.42,2.88l-.44.11h-.14l-.69,0c-1.68-.27-3.34-.59-5-.91s-3.09-.58-4.65-.85a84.72,84.72,0,0,0-14.06-1.26c-1.93,0-3.82.08-5.63.24a49.87,49.87,0,0,0-10,1.69,29.1,29.1,0,0,0-8.52,4.08,22.7,22.7,0,0,0-9.15,16.4,26.82,26.82,0,0,0,5.48,17.76,36,36,0,0,0,14.8,11.42,33.67,33.67,0,0,0,13.07,2.69,31.32,31.32,0,0,0,6.64-.7,28.65,28.65,0,0,0,4.91-1.49,26.06,26.06,0,0,0,4.17-2,37.52,37.52,0,0,0,4.09-3.06,43.08,43.08,0,0,0,4.6,4.08l.47.34a41.07,41.07,0,0,0,4.93,3.35,40.17,40.17,0,0,0,10.73,4.14,45.08,45.08,0,0,0,9.53,1.1c.79,0,1.59,0,2.36-.08a48.09,48.09,0,0,0,11.16-1.9,33.46,33.46,0,0,0,10.09-5,23.14,23.14,0,0,0,4-3.61c.81.85,1.65,1.67,2.52,2.43a42.7,42.7,0,0,0,9.92,6.68,52.69,52.69,0,0,0,12.27,4.41,47.55,47.55,0,0,0,9.58,1c1.21,0,2.41-.05,3.57-.16,3.84-.36,8.31-1,12.32-3.07a19.05,19.05,0,0,0,8.35-7.92c.56.51,1.13,1,1.7,1.48,5.41,4.44,13.82,9.74,23.18,9.74a24.41,24.41,0,0,0,4.28-.38,24.07,24.07,0,0,0,7-2.36,21.35,21.35,0,0,0,4.14-2.8c0,.38,0,.75,0,1.12,0,1.55,0,3.09,0,4.64,0,3.17,0,6.46-.13,9.68-.17,5.44-.35,10.36-.56,15-.14,2.93-.3,5.87-.47,8.8-.1,1.73-.2,3.47-.29,5.2-.2,3.77-.24,7.6-.29,11.32l0,2.64c0,2.08-.06,4.17-.08,6.25,0,2.72,0,5.45-.1,8.17,0,1.6-.13,3.22-.22,4.78,0,.75-.09,1.5-.13,2.25-.09,1.62-.21,3.24-.34,4.85l-.16,2.17c-.21,2.91-.51,5.87-.78,8.73q-.21,2-.39,4-.64,6.93-1.32,13.85l-.39,3.82c-.33,3.28-.67,6.67-.94,10-.34,4.16-.61,8.39-.87,12.49l-.15,2.3c-.3,4.57-.69,9.16-1.07,13.59-.51,6-1.3,12.09-2.06,18-.42,3.25-.85,6.61-1.24,9.91-.24,2.1-.41,4.18-.48,6.18l-.06,1.17c0,.75-.09,1.53-.08,2.29l0,3.85c0,1.87.19,3.76.35,5.6l.12,1.45.21,2.52c.13,1.46.26,2.93.36,4.41.32,4.52.33,9.12.35,13.58v.34c0,2.5-.07,5.05-.14,7.51-.06,1.91-.11,3.82-.13,5.72q-.08,7.17-.07,14.32c0,5.12-.17,9.24-.48,13-.4,4.61-.87,9.3-1.43,14.33-.48,4.31-.82,8.78-1,13.3-.1,2.38-.25,4.8-.4,7.13-.13,2-.26,4-.35,6-.19,4.07-.29,8.42-.31,13.7v1.87c0,1.38,0,2.79,0,4.18a16.54,16.54,0,0,1-.23,1.89l0,.28-.1.24-.14.32a5.94,5.94,0,0,1-.78,1.6,11.66,11.66,0,0,1-3.14,3.16,19.91,19.91,0,0,1-3.79,2.14,47.79,47.79,0,0,1-6.83,2.49,74.93,74.93,0,0,1-7.7,1.36,115.13,115.13,0,0,1-13.25.87c-2.21,0-4.42.08-6.62.08-2.69,0-5-.06-7.19-.18-1.48-.07-3-.16-4.44-.25-3.23-.18-6.46-.36-9.7-.51-2-.09-4.12-.13-6.53-.13-2.57,0-5.23,0-7.57.09l-1,0c-1.66,0-3.32.07-5,.07a71.11,71.11,0,0,1-7.51-.34c-4.71-.5-9.44-1.39-14-2.25l-1.08-.2c-2.79-.53-5.65-.91-8.41-1.29-8-.87-16.23-1.39-24.16-1.9l-3.59-.23c-7.49-.48-17.37-1-27.42-1.15-1.26,0-2.52,0-3.78,0-7.66,0-15.75.23-24,.68-9.54.52-19.29.93-28.46,1.3-3.85.16-8,.41-13.36.83l-4.42.37c-3,.25-6,.52-9,.68-4.53.24-9.18.38-13.83.42h-1l-4.53,0c-3.33,0-5.89-.07-8.3-.23a180.38,180.38,0,0,1-25.15-2.84c-4-.81-8-1.7-12.42-2.73-1.26-.29-2.52-.62-3.78-.94l-1.81-.47c-1.68-.43-3.38-.78-5.18-1.07a54.63,54.63,0,0,0-6.31-.4c-1.2,0-2.37.06-3.49.16a15.79,15.79,0,0,0-1.92.43,23,23,0,0,0-2.32.86l-1,.39a13.47,13.47,0,0,1-4.88.94,11.71,11.71,0,0,1-3-.39,11,11,0,0,1-1.92-.75,7.54,7.54,0,0,1-2.83-2.55,15,15,0,0,1-2-5.65,50.63,50.63,0,0,1-.86-7.21l0-.56c-.29-4.26-.27-8.63-.25-12.85V1294c0-2.21.09-4.46.16-6.64s.14-4.43.14-6.65,0-4.69-.11-7.13c-.07-2-.28-4.13-.48-6.14l-.1-1c-.12-1.19-.27-2.38-.41-3.56s-.29-2.29-.4-3.43c-.25-2.37-.42-4.3-.53-6.08l-.17-2.79c-.21-3.64-.44-7.39-.84-11.07-.53-4.92-1.06-9.75-1.54-14.63a273.6,273.6,0,0,1-1-27.87c0-7.75.82-15.61,1.6-23.2l.33-3.36c.59-5.93,1-10.48,1.21-14.75.28-4.8.48-9.7.64-13.91.31-8.29.66-18.1.87-28,.15-7,.14-14.19.13-21.11v-5.9c0-5.33.08-10.1.23-14.56.14-4.24.54-8.53.93-12.68v-.12c.28-3,.54-6.06.81-9.09.54-6.3,1.1-12.81,1.85-19.18l.23-1.9c.44-3.74.91-7.61,1.13-11.42.23-4,.39-8.05.54-12l.11-2.9c.21-5.09.37-10.17.54-15.25q.18-5.84.39-11.66a266.77,266.77,0,0,1,2.33-28.88c.4-2.73.79-5.44,1.17-8.17.6-4.67,1.1-9.29,1.49-13.74s.47-8.8.52-13.32c0-.46,0-.93,0-1.41a45.51,45.51,0,0,1,.19-5,11.43,11.43,0,0,1,1.88-5.78c.31-.4.59-.77.91-1.15a7.72,7.72,0,0,1,1.21-1.07l.17-.12a7.92,7.92,0,0,1,3.52-1.41l.58-.09a24.52,24.52,0,0,1,3.09-.33h.58c1.11,0,2,0,2.91.11Zm137.23,123.81a31.1,31.1,0,0,0-6.35-7.82,31.46,31.46,0,0,0-7.74-4.8,40.82,40.82,0,0,0-9.94-3.07,52.4,52.4,0,0,0-8.28-.72h-1.23a53.42,53.42,0,0,0-5.73.52,26.66,26.66,0,0,0-4.39.88,19.94,19.94,0,0,0-7.93,4.12l-.9-.27a40.13,40.13,0,0,0-9.44-1.39h-1a47,47,0,0,0-10,1.12,39.94,39.94,0,0,0-9.07,3,22.6,22.6,0,0,0-3.81,2.32l-.3.24a10.57,10.57,0,0,0-1.49,1.26c-.47.51-.94,1.09-1.49,1.82a27.51,27.51,0,0,0-1.72,2.59H1217c-1,0-1.9.13-2.77.22l-1.08.13c-1.56.17-3.18.36-4.75.65a30.76,30.76,0,0,0-4.73,1.22c-1.52.55-3,1.15-4.31,1.78a34.19,34.19,0,0,0-7.76,4.82,25.77,25.77,0,0,0-3.55,3.56l-.3.38c-.51.63-1,1.29-1.49,2l-.24-.07a11.06,11.06,0,0,0-2.9-.47c-.65.08-1.29.17-1.94.29a6.59,6.59,0,0,0-.86.27c-.67.26-1.34.53-2,.82a18.1,18.1,0,0,0-3.46,2.07c-1.18.89-2.19,1.71-3.1,2.51a28.6,28.6,0,0,0-7.33,9.19c-1.69,3.61-2.05,7.23-1,10.22a13.15,13.15,0,0,0,2.26,4.13,9.57,9.57,0,0,0,3,2.36,39.44,39.44,0,0,0,9.07,3.38,66.4,66.4,0,0,0,14.42,1.83h.38c1.7,0,3.42-.12,5.09-.23l1-.07c.46,0,.94,0,1.41,0a37.91,37.91,0,0,1,4.2.28c1,.17,2,.38,3,.59l2,.4c2,.36,4.08.68,6.66,1,2,.25,4,.44,5.93.63,1,.09,2.08.13,3.4.13l2.4,0h.28a83,83,0,0,0,12.47-1.28l.43-.07c1.78-.31,3.62-.63,5.41-1,1-.24,2.09-.48,3.13-.74.28-.06.56-.14.84-.22l1.12-.29c.43.12.85.28,1.27.43.26.1.52.2.78.28.72.24,1.47.46,2.22.65,1.63.42,3.31.8,5.13,1.16,3.73.74,7.67,1.35,12.42,1.93a75.35,75.35,0,0,0,8.88.61c.67,0,1.34,0,2,0,2.22-.1,4.17-.2,6-.31.6,0,1.21-.1,1.82-.17a29.42,29.42,0,0,1,3-.2,3.94,3.94,0,0,1,.47,0c.12.12.25.25.38.36a18.33,18.33,0,0,0,1.57,1.24,18.65,18.65,0,0,0,2.3,1.35,54.3,54.3,0,0,0,5.72,2.39,81.65,81.65,0,0,0,11.15,3.07,37.56,37.56,0,0,0,6.56.78h.7a27.23,27.23,0,0,0,2.86-.14l.31,0a32.5,32.5,0,0,0,3.9-.59l.23-.05a10.88,10.88,0,0,0,1.67-.46l.52-.19a9.18,9.18,0,0,0,1.78-.79,12.66,12.66,0,0,0,2.3-1.77,18.55,18.55,0,0,0,1.42-1.6c1.33.57,2.7,1.06,3.86,1.46a18.84,18.84,0,0,0,3.23.82l.37.07a17.65,17.65,0,0,0,2.89.33l.6,0a24.81,24.81,0,0,0,4.47-.69,20.51,20.51,0,0,0,3-1.14,7.79,7.79,0,0,0,1.39-.75,20.67,20.67,0,0,0,2.51-2.07l.22-.21c.56-.55,1.13-1.12,1.64-1.73l.23-.28a16.09,16.09,0,0,0,2.15-3.06,17.57,17.57,0,0,0,1.84-7.42,26.47,26.47,0,0,0-.17-3.25l0-.26a24.94,24.94,0,0,0-.64-3.77,32.67,32.67,0,0,0-1.55-4.5,12.83,12.83,0,0,0-3.62-4.72,20.43,20.43,0,0,0-2.66-2,24.67,24.67,0,0,0-3.78-1.79,16.56,16.56,0,0,0-5.95-1.12l-.87,0a31,31,0,0,0-3.78.49,14.31,14.31,0,0,0-2.9.76l-.53.2a6.76,6.76,0,0,0-1.31.6l-.26.16-.45.3c-1.47-7-3.87-12.43-7.33-16.71a20,20,0,0,0-11.42-7.36,12.47,12.47,0,0,0-2.27-.22,10.86,10.86,0,0,0-4.83,1.1,9,9,0,0,0-2.59,1.84,35.21,35.21,0,0,0-1.67-3.13Z" transform="translate(3)"/><path class="cls-6" d="M1510.92,918.35h.17c1.66.08,3.38.15,5.07.35,2,.22,3.95.51,5.9.85,1.6.28,3.2.64,4.69,1,1,.24,2.13.43,3.17.62l1.64.29a4.21,4.21,0,0,1,2.55,2,4.3,4.3,0,0,1,.42,3.29,4.23,4.23,0,0,1-2,2.54,4,4,0,0,1-2.08.56,5.76,5.76,0,0,1-1.19-.13l-.37-.07c-1.53-.29-3.06-.57-4.59-.89.09,1.34.16,2.69.21,4,.07,2.07-.07,4.19-.2,6.24l0,.54c-.2,3-.54,6-.9,8.9a55.23,55.23,0,0,0-7.44-10.52,46.08,46.08,0,0,0-7.62-6.76,42.76,42.76,0,0,0-7.8-4.27,38.7,38.7,0,0,0-9.73-3,33.34,33.34,0,0,0-4.59-.44h-.16a22.87,22.87,0,0,0-4.84.49,19.82,19.82,0,0,0-8.67,4.53l-.59-.75a30.84,30.84,0,0,0-7-6.31c-1.16-.77-2.35-1.48-3.56-2.13l1.76.07c2.16.08,4.33.11,6.46.11s4.5,0,6.71-.12c2.61-.1,5.26-.28,7.83-.46,2-.14,4.11-.28,6.16-.38,3.53-.17,7.08-.22,9.78-.23h1.68c1.26,0,2.53,0,3.79,0,2.08,0,3.78,0,5.35.1Z" transform="translate(3)"/><path class="cls-6" d="M1498.45,963.58a24,24,0,0,1,4.24,1.2,34.72,34.72,0,0,1,5.91,3.52,39.21,39.21,0,0,1,5.88,5.92l.8,1.11-.2,0-.2,0c-.69.06-1.4.09-2.12.09s-1.55,0-2.37-.11a18.51,18.51,0,0,1-8.89-3.61,24.66,24.66,0,0,1-3.26-3.28,29.14,29.14,0,0,1-2.48-4.28l-.2-.51c.24-.06.47-.12.7-.16s.63,0,1,0,.83,0,1.24.05Z" transform="translate(3)"/><path class="cls-7" d="M1276.15,1003.12a52.38,52.38,0,0,1,8.27.72,40.82,40.82,0,0,1,9.94,3.07,28.88,28.88,0,0,1,14.09,12.62,35.21,35.21,0,0,1,1.67,3.13,9,9,0,0,1,2.59-1.84,10.86,10.86,0,0,1,4.83-1.1,11.76,11.76,0,0,1,2.28.23,19.92,19.92,0,0,1,11.41,7.35c3.46,4.28,5.86,9.74,7.33,16.72l.45-.31.26-.17a7.38,7.38,0,0,1,1.31-.59l.53-.2a14.31,14.31,0,0,1,2.9-.76,31,31,0,0,1,3.78-.49c.29,0,.58,0,.87,0a16.55,16.55,0,0,1,5.95,1.11,24.67,24.67,0,0,1,3.78,1.79,20.43,20.43,0,0,1,2.66,2,12.83,12.83,0,0,1,3.62,4.72,34.08,34.08,0,0,1,1.56,4.5,27.72,27.72,0,0,1,.63,3.77l0,.26a24.57,24.57,0,0,1,.16,3.25,17.41,17.41,0,0,1-1.83,7.42,16.09,16.09,0,0,1-2.15,3.06l-.23.28c-.51.61-1.08,1.18-1.64,1.73l-.22.21a21.48,21.48,0,0,1-2.51,2.07,8.92,8.92,0,0,1-1.39.75,20.51,20.51,0,0,1-3,1.14,25,25,0,0,1-4.47.69l-.6,0a17.65,17.65,0,0,1-2.89-.33l-.37-.07a20.08,20.08,0,0,1-3.23-.81c-1.16-.41-2.53-.91-3.86-1.47a18.55,18.55,0,0,1-1.42,1.6,12.66,12.66,0,0,1-2.3,1.77,9.18,9.18,0,0,1-1.78.79l-.52.2a12.11,12.11,0,0,1-1.67.45l-.24.05a32,32,0,0,1-3.89.59l-.31,0a24.76,24.76,0,0,1-2.86.14h-.7a37.56,37.56,0,0,1-6.56-.78,81.65,81.65,0,0,1-11.15-3.07,54.3,54.3,0,0,1-5.72-2.39,18.65,18.65,0,0,1-2.3-1.35,18.33,18.33,0,0,1-1.57-1.24c-.13-.11-.25-.24-.37-.36a4.19,4.19,0,0,0-.48,0,29.23,29.23,0,0,0-3,.2c-.61.07-1.22.13-1.82.17-1.79.11-3.74.21-6,.3-.67,0-1.34,0-2,0a75.35,75.35,0,0,1-8.88-.61c-4.75-.58-8.69-1.19-12.42-1.93-1.82-.36-3.5-.74-5.12-1.15-.76-.2-1.51-.42-2.22-.66-.27-.08-.53-.18-.79-.28-.42-.15-.84-.31-1.26-.43l-1.13.29-.84.22c-1,.26-2.08.5-3.13.74-1.79.39-3.63.71-5.41,1l-.43.07a83,83,0,0,1-12.47,1.28h-.28l-2.4,0a34,34,0,0,1-3.4-.14c-1.94-.18-3.94-.37-5.93-.62-2.58-.32-4.7-.65-6.67-1-.66-.12-1.31-.26-2-.39-1-.21-2-.42-3-.59a37.74,37.74,0,0,0-4.2-.28c-.47,0-.94,0-1.41,0l-1,.07c-1.67.11-3.39.23-5.08.23h-.38a66.17,66.17,0,0,1-14.42-1.83,39.77,39.77,0,0,1-9.08-3.37,9.74,9.74,0,0,1-3-2.37,13,13,0,0,1-2.26-4.13c-1-3-.67-6.61,1-10.22a28.47,28.47,0,0,1,7.33-9.19c.91-.8,1.92-1.62,3.1-2.51a18.1,18.1,0,0,1,3.46-2.07c.65-.29,1.32-.56,2-.83a8.52,8.52,0,0,1,.86-.26c.65-.11,1.29-.21,1.94-.29a11.34,11.34,0,0,1,2.89.46l.25.08c.45-.68,1-1.34,1.49-2l.3-.38a25.77,25.77,0,0,1,3.55-3.56,34.19,34.19,0,0,1,7.76-4.82c1.34-.63,2.79-1.23,4.31-1.78a29.61,29.61,0,0,1,4.73-1.21c1.57-.3,3.19-.49,4.75-.66l1.08-.13c.87-.09,1.8-.19,2.77-.21h.72a25.46,25.46,0,0,1,1.71-2.59c.55-.73,1-1.31,1.49-1.82a11.35,11.35,0,0,1,1.49-1.27l.3-.23a22.6,22.6,0,0,1,3.81-2.32,39.16,39.16,0,0,1,9.07-3,46.35,46.35,0,0,1,10-1.13h1a40.13,40.13,0,0,1,9.44,1.39l.9.27a20,20,0,0,1,7.93-4.13,27.73,27.73,0,0,1,4.39-.87,53.28,53.28,0,0,1,5.73-.51c.41,0,.83,0,1.24,0Z" transform="translate(3)"/><path class="cls-7" d="M1443.3,914.68c1,0,2,0,2.87.11a38.49,38.49,0,0,1,10.41,2.33,41.59,41.59,0,0,1,8.38,4.31,30.84,30.84,0,0,1,7,6.31c.2.25.4.5.59.76a19.73,19.73,0,0,1,8.67-4.54,22.12,22.12,0,0,1,4.84-.48h.16a33.33,33.33,0,0,1,4.59.43,38.7,38.7,0,0,1,9.73,3,42.76,42.76,0,0,1,7.8,4.27,46.08,46.08,0,0,1,7.62,6.76,58.06,58.06,0,0,1,10.19,16.15,40.86,40.86,0,0,1,2.78,8.44,42.7,42.7,0,0,1,.62,4.6,20.11,20.11,0,0,1-.13,5.6,12.28,12.28,0,0,1-1.76,4.42c-.16.24-.33.49-.51.72,0,.21,0,.42-.05.64-.08.75-.19,1.54-.32,2.34a22.06,22.06,0,0,1,.19,2.64,10.61,10.61,0,0,1-1.12,4.58,11.69,11.69,0,0,1-5.12,5.21,20.63,20.63,0,0,1-4.82,3.43,24.07,24.07,0,0,1-7,2.36,24.44,24.44,0,0,1-4.29.38c-9.35,0-17.76-5.3-23.17-9.74-.57-.47-1.14-1-1.7-1.48a19.05,19.05,0,0,1-8.35,7.92c-4,2.06-8.48,2.71-12.32,3.07-1.16.11-2.36.16-3.57.16a47.55,47.55,0,0,1-9.58-1,52.69,52.69,0,0,1-12.27-4.41,42.7,42.7,0,0,1-9.92-6.68c-.87-.76-1.71-1.58-2.52-2.43a23.14,23.14,0,0,1-4,3.61,33.7,33.7,0,0,1-10.09,5,48.55,48.55,0,0,1-11.16,1.89c-.77.05-1.57.08-2.36.08a45.08,45.08,0,0,1-9.53-1.1,40.36,40.36,0,0,1-10.74-4.14,41.88,41.88,0,0,1-4.93-3.35l-.45-.34a42.14,42.14,0,0,1-4.61-4.08,37.52,37.52,0,0,1-4.09,3.06,26.51,26.51,0,0,1-4.17,2,28.92,28.92,0,0,1-4.91,1.49,31.32,31.32,0,0,1-6.64.7,33.67,33.67,0,0,1-13.07-2.69,36,36,0,0,1-14.8-11.42,26.76,26.76,0,0,1-5.48-17.76,22.7,22.7,0,0,1,9.15-16.4,29.1,29.1,0,0,1,8.52-4.08,49.87,49.87,0,0,1,10-1.69c1.81-.16,3.71-.25,5.63-.25a83.79,83.79,0,0,1,14.06,1.28c1.56.26,3.11.55,4.66.84s3.33.64,5,.91c.23,0,.46,0,.7,0h.13l.44-.12a25.5,25.5,0,0,0,1.42-2.87l.16-.34a38.8,38.8,0,0,1,2.15-4.27,22.32,22.32,0,0,1,3.31-4.2,19.5,19.5,0,0,1,4.17-3.08,27.11,27.11,0,0,1,4.88-2.12,31.84,31.84,0,0,1,5-1.25,43.45,43.45,0,0,1,7.59-.67c1.07,0,2.16,0,3.24.12a40.8,40.8,0,0,1,19.3,6.39c.09-.24.2-.48.31-.72l.21-.46a13.44,13.44,0,0,1,2.59-3.48,16.84,16.84,0,0,1,3.73-2.74,27.88,27.88,0,0,1,4.31-1.86,33.44,33.44,0,0,1,5.39-1.39,37.09,37.09,0,0,1,7.09-.68Z" transform="translate(3)"/><path class="cls-7" d="M1363.11,925.82a18.93,18.93,0,0,1,3.5.57,26.25,26.25,0,0,1,4.45,1.6c.77.34,1.53.68,2.27,1.06,1.09.57,2.19,1.12,3.26,1.74a51.44,51.44,0,0,1,4.58,2.85,16.73,16.73,0,0,1,3.52,3.46,21.7,21.7,0,0,1,2.45,4.39,12.78,12.78,0,0,1,.82,2.29,14,14,0,0,1,.26,2.23,12.46,12.46,0,0,1-.27,2.36l-.15.59c-.23.54-.45,1.08-.68,1.61a9.76,9.76,0,0,1-3.07,3.35,10.23,10.23,0,0,1-4.88,1.65,11.18,11.18,0,0,1-1.92,0l-.16.23a4.57,4.57,0,0,1-2.54,2,4.25,4.25,0,0,1-5.23-3,4.56,4.56,0,0,1,0-2.35q-.55-.4-1.08-.84a14.71,14.71,0,0,1-5.59-.35,17.4,17.4,0,0,1-2.43-.83,28.25,28.25,0,0,1-2.81-1.25,13.83,13.83,0,0,1-2.48-1.9,11.8,11.8,0,0,1-2-2.65,6.8,6.8,0,0,1-.38-.7,4.5,4.5,0,0,1-1.08-1.22,4.15,4.15,0,0,1-.43-3.28c.35-.92.7-1.84,1-2.76a11.14,11.14,0,0,1,.44-1.17c.35-.91.69-1.82,1-2.73a11.43,11.43,0,0,1,3-4.88,8.21,8.21,0,0,1,4-1.88,12.93,12.93,0,0,1,2-.17Z" transform="translate(3)"/><path class="cls-5" d="M1500.27,1127.06a4.3,4.3,0,0,1,3,1.25,4,4,0,0,1,1.25,3c-.07.5-.14,1-.22,1.48.11.33.24.67.38,1s.19.48.28.73c.23.65.45,1.3.67,2a4.38,4.38,0,0,1,2.54,5.12,4.66,4.66,0,0,1-.57,1.24l.14.46.13.47.61,2.1c1.06,3.65,2.16,7.43,3.34,11.12.29.92.59,1.83.88,2.74,1.06,3.28,2.16,6.66,3.07,10,.6,2.27,1,4.56,1.35,6.51a54.4,54.4,0,0,1,.77,7.08c.18,4.8.21,9.69.23,14.42,0,4.37,0,8.89.2,13.33v.33c.07,2.21.15,4.5.29,6.74.15,2.48.33,5,.51,7.44.31,4.21.59,8.49.83,12.71.33,5.78.51,10.45.58,14.72s-.2,8.9-.45,13.24l-.06.93c-.19,3.29-.47,6.62-.74,9.85-.11,1.25-.21,2.49-.31,3.74l-.39,4.62-.19,2.31c-.07.9-.13,1.8-.19,2.71-.08,1.17-.16,2.35-.27,3.52a140.42,140.42,0,0,1-2,14.49c-.23,1.13-.51,2.25-.79,3.31a26.17,26.17,0,0,1-1,3.14,18.78,18.78,0,0,1-2.25,4.45,11.44,11.44,0,0,1-6.42,4.22,18.42,18.42,0,0,1-3.4.36l-.33,0c-1,0-2,.11-3.14.21s-2.17.22-3.25.34-2.27.25-3.4.34c-1.56.14-3.39.28-5.2.28-.47,0-.93,0-1.4,0l-2.79-.12c-1.44-.07-2.89-.14-4.33-.19-1,0-1.93,0-2.89,0-3,0-6.19.13-10.35.43-1.74.13-3.5.32-5.21.51l-2,.23c-2.11.21-4.3.36-6.71.44-.83,0-1.66,0-2.5,0-3.1,0-6.49-.18-10.67-.57l-.91-.08c-2-.18-4-.37-6-.37h-.11a58.49,58.49,0,0,0-7.06.47l-1.41.17-4.57.71c-3,.48-6.14,1-9.23,1.37-2.52.33-4.75.55-6.8.68-1,.06-2,.1-2.93.13-1.49,0-3,.1-4.52.26a30.21,30.21,0,0,0-4.94,1.43l-2,1-1.52.73c-.87.41-1.84.84-3,1.35a8.41,8.41,0,0,1-2.51.59h-.24a4.23,4.23,0,0,1-2.77-1.26,4.31,4.31,0,0,1-1.25-3,4.41,4.41,0,0,1,1.24-3,3.23,3.23,0,0,1,.54-.48l.07-.11h0c.43-1.23.77-2.51,1.1-3.75.48-1.84.84-3.29,1.13-4.64.65-3,1.19-6.09,1.66-9.38.2-2.14.37-4.31.5-6.44.13-1.94.12-3.93.12-5.85v-1.14c0-3.78-.06-7.86-.21-12.84-.09-2.83-.16-5.66-.23-8.49-.16-6.35-.33-12.92-.66-19.37-.5-9.91-1.1-19.1-1.82-28.08-.28-3.45-.51-6.91-.75-10.36l-.25-3.65q-.24-3.57-.53-7.15-.27-3.4-.51-6.81-.26-3.63-.46-7.26c-.13-2.42-.18-4.8-.22-7.23-.06-3.86,0-7.8,0-11.6v-3.44c0-3.72,0-7.56.32-11.32.17-2.33.39-5.07.81-7.77l.13-.89a20.27,20.27,0,0,1,1.6-6.25l.18-.32.11-.17c.15-.38.32-.76.5-1.12A5.72,5.72,0,0,1,1384,1138a4.54,4.54,0,0,1,1.15-.15,6,6,0,0,1,3.24,1.07,7.82,7.82,0,0,0,.86.46,9.49,9.49,0,0,0,1,.3h.65a29.82,29.82,0,0,0,3-.21l1.55-.16c2-.16,4-.23,6.43-.3l3.46-.1c3.26-.1,6.62-.2,9.94-.24,2.5,0,5-.11,7.5-.19,2.06-.07,4.13-.13,6.19-.17h.14c4.24-.08,8.62-.16,12.91-.59,1.56-.16,3.12-.34,4.68-.53,3.14-.5,6.28-1,9.41-1.56l3.7-.62c2.69-.45,5.32-.88,8-1.22,1.13-.14,2.26-.26,3.4-.37s2.56-.16,3.8-.2h.85c1.46,0,2.95.1,4.38.2l.93.06,2.33.14,4.68.31c2.59.19,5.22.47,7.82.83a8.32,8.32,0,0,1-.24-1.44l0-.11a5.44,5.44,0,0,1,.19-1.78c.06-.27.12-.53.15-.78l0-.21,0-.21a4.28,4.28,0,0,1,4.11-3.13Z" transform="translate(3)"/><path class="cls-8" d="M1381.33,971.64c1.62,0,2.92,1.56,3,3.56.15,5.78.18,11.65.21,17.33,0,2,0,3.92,0,5.88,0,4.42.12,8.82.23,13.09l.09,3.88a3.19,3.19,0,0,1,2.13,2.49c.15,1.11.23,2.25.32,3.35l.05.77.11,1.39c.06.71.11,1.42.17,2.13.17,2.48.3,5,.42,7.45l0,.47c.07,1.53.1,3.06.13,4.58l.06,2.62,0,.62,0,.61c.47.18.94.39,1.4.59a3.29,3.29,0,0,1,1.77,1.64,3.92,3.92,0,0,1,.16.36.42.42,0,0,1,.11-.16,2.64,2.64,0,0,1,4.2,0l.47.72a4,4,0,0,1,.4,1.79c.17,1.62.32,3.24.47,4.85l.13,1.39c.1,1.08.16,2.17.22,3.26l.09,1.56c0,.89.1,1.77.13,2.66.91,0,1.79.08,2.68.16a18.19,18.19,0,0,1,3.49.64c.76.21,1.52.46,2.27.7a2.9,2.9,0,0,1,1.54,1.23,3.66,3.66,0,0,1,1.52,3.08c0,1.6-.08,3.2-.14,4.79-.07,2-.14,4-.15,6,0,1.69.08,3.42.18,5.08v.33c.08,1.42,0,2.87,0,4.28v1c0,1.54,0,3.2,0,4.87l0,1.54c0,1.23.08,2.47.08,3.71q0,5,0,10.05a2.06,2.06,0,0,1,.7-.12,2.61,2.61,0,0,1,1.5.49,3.71,3.71,0,0,1,1.36,2.12,13.74,13.74,0,0,1,.41,4c0,.32,0,.64,0,1l0,2,0,2c0,1.4,0,2.8,0,4.2v1.76c0,3.59-.12,7.24-.25,10.66-.28,7.6-.51,15.21-.75,22.81-.17,5.31-.31,10.52-.45,15.74l-.21,7.81q-.12,4.43-.23,8.87c-.11,4.74-.23,9.64-.4,14.45-.48,13.95-1.18,28.76-2.3,48l-.17,2.85c-.15,2.55-.31,5.11-.44,7.66-.19,3.71-.33,7.59-.45,11.87,0,.74,0,1.48,0,2.22,0,1.09,0,2.18-.07,3.27q-.14,3-.29,6c0,1-.11,1.92-.18,2.88,0,.79-.11,1.58-.15,2.37q-.16,3.09-.32,6.18c-.15,3.19-.37,6.41-.68,9.84-.18,2.09-.49,4.19-.79,6.22-.19,1.27-.37,2.54-.53,3.83-.13,1.56-.23,3.19-.31,4.84.92-.16,1.77-.34,2.59-.53a4.25,4.25,0,0,1,1.62-5.65l.6-.27c1.16-.52,2.35-1,3.55-1.49a8.41,8.41,0,0,1,2.85-.49,7.54,7.54,0,0,1,6,2.68,5.77,5.77,0,0,1,1.23,2.19,5.24,5.24,0,0,1,0,2.55,7.28,7.28,0,0,1-.72,1.59,6.25,6.25,0,0,1-1.47,1.58,35.34,35.34,0,0,1-3.91,2.64,26.43,26.43,0,0,1-3.94,1.81l-.2.08a26.5,26.5,0,0,1-4.6,1.29c-1.38.28-2.79.47-4.12.63a2.77,2.77,0,0,1-5.3.52c-.87,0-1.76.06-2.65.06h-.35c-4.4,0-8.8-.07-13.2-.12-4.65,0-9.3-.11-14-.12h-.55c-1.89,0-3.84,0-5.76-.1-2.28-.12-4.49-.37-6.35-.6-3-.36-6-.85-8.78-1.33a3.44,3.44,0,0,1-.79,1.82,2.73,2.73,0,0,1-2.1,1.05,2.82,2.82,0,0,1-2-.93,3.56,3.56,0,0,1-1-2.63v-.29c-3.5-.57-7.07-1.2-10.92-1.91-3.37-.63-7-1.21-11.56-1.84-1.94-.23-4.24-.49-6.6-.64a4.45,4.45,0,0,1-3-1.25,4.28,4.28,0,0,1,2.79-7.28h.23c3.45.21,7.1.64,11.83,1.39,3.51.55,7.15,1.12,10.78,1.8,2.19.42,4.39.81,6.59,1.19,0-.93,0-1.87-.08-2.81-.1-3.77-.24-7.58-.44-11.69-.18-3.76-.37-7.77-.48-11.71-.08-3.12-.11-6.45-.1-10.77,0-14.57.06-31.1.56-47.45l.1-3.25c.21-6.67.42-13.57.71-20.35q.36-8.71.78-17.42l.25-5.38c.37-8.18.7-16.21,1-23.88.28-7.93.76-16,1.23-23.77.3-5.08.6-9.25.94-13.1l.14-1.62c.1-1.1.2-2.2.31-3.3,0-.56,0-1.13,0-1.7-.06-2.3,0-4.59,0-6.8,0-.87,0-1.73,0-2.6,0-2.87.12-5.91.27-9.3a4,4,0,0,1,.87-2.51,2.62,2.62,0,0,1,4.06-.15c0-1.08.1-2.16.16-3.25.16-3,.43-6,.69-8.87l.22-2.45c.23-2.7.59-5.44.94-8.09l.11-.83.43-3.35c.23-1.74.46-3.49.68-5.24,0-.39.09-.79.1-1.19q.06-1.23.09-2.46c0-1.35,0-2.73,0-4.06l0-.84a3.7,3.7,0,0,1,1-2.68,2.74,2.74,0,0,1,1.94-.87,2.58,2.58,0,0,1,1.5.49c.78-.1,1.54-.2,2.31-.24l0-.82c0-1.66-.15-3.33-.27-5l-.08-.68-.08-.61a3.54,3.54,0,0,1-.52-.78c-.74-1.52-.44-4,1.07-4.86a3.08,3.08,0,0,1,1.25-.83,1.67,1.67,0,0,1,.32-.08,22.06,22.06,0,0,1,2.71-1.33c.42-.17.84-.34,1.27-.49a12.26,12.26,0,0,1,3.2-.58c.72-.06,1.43-.08,2.15-.1h.1l-.09-4.23,0-.76,0-.66c-.07-1.07-.16-2.13-.25-3.2-.06-.66-.11-1.32-.16-2-.07-.86-.14-1.72-.19-2.59,0-.47-.06-.93-.08-1.41a10.62,10.62,0,0,1,.12-1.55,3.85,3.85,0,0,1,.68-1.64c0-1.61-.06-3.23-.1-4.84a3.67,3.67,0,0,1,1-2.67,2.72,2.72,0,0,1,1.94-.89,2.45,2.45,0,0,1,.71.11,2.92,2.92,0,0,1,.18-.46,3.8,3.8,0,0,1,2.34-2l.18,0h0c-.06-2.33-.11-4.65-.17-7-.08-3-.08-6-.09-8.82v-2.19q0-6-.08-12c0-2-.08-4-.13-6l0-1.49a3.72,3.72,0,0,1,1-2.67,2.76,2.76,0,0,1,1.95-.89Zm-7.64,87.37c-.26-3.06-.46-6.18-.65-9.19l0-.54a3.59,3.59,0,0,1-.49-.73h-.14c-.82,0-1.66,0-2.48.13a14.85,14.85,0,0,0-2.92,1c.17,1.36.29,2.65.39,3.91s.12,2.55.14,3.51l.41.06c.21,0,.42.08.63.14a10.84,10.84,0,0,1,1.14.37l.33.11.17.06c.76.27,1.52.53,2.29.77l1.22.37Zm14.67,1.57h1l1,0,1.61,0c0-.88-.08-1.77-.14-2.66l-.09-1.63c-.06-1-.11-2.08-.21-3.1l0-.4c-1-.1-2.06-.2-3.1-.28.11,1.24.22,2.5.32,3.75l.19,2.33a3.63,3.63,0,0,1-.53,2Z" transform="translate(3)"/><path class="cls-8" d="M1384.51,1047a4.63,4.63,0,0,1,2,2.54c.35.88.7,1.76,1,2.65a4.94,4.94,0,0,1,2.16-.51,5.56,5.56,0,0,1,4.44,2.64,12.28,12.28,0,0,1,1.65,4.71c.22,1.32.41,2.64.59,4a34.14,34.14,0,0,1,.4,5.53,27.9,27.9,0,0,1-.75,6.25,12.5,12.5,0,0,1-1.1,2.77,3,3,0,0,1-1,1.09,5.62,5.62,0,0,1-.64.48c-.1,1-.24,2-.43,3a9.29,9.29,0,0,1-.94,2.68,4.76,4.76,0,0,1-2.82,2.46,4.4,4.4,0,0,1-3.55-.21,7.21,7.21,0,0,1-4.14,4.35,4.51,4.51,0,0,1-2.12.26l-1.14-.15a4.27,4.27,0,0,1-1.87-1.09,6.39,6.39,0,0,1-1.14-1.19l-.15,1.14a8.71,8.71,0,0,1-.57,2.3c-.3,4.67-1,9.29-1.7,13.91a4.1,4.1,0,0,1-2,2.54,4.24,4.24,0,0,1-5.81-1.53,4.56,4.56,0,0,1-.43-3.28c.27-1.69.54-3.39.79-5.1.14-1.2.26-2.4.37-3.61a3.81,3.81,0,0,1-1.38-2.14,23.11,23.11,0,0,1-.37-3.12c-.07-.91-.15-1.83-.21-2.74-.13-1.78-.27-3.55-.41-5.32-.12-1.62-.24-3.24-.35-4.86-.08-.6-.13-1.22-.19-1.84-.09-1-.13-1.91-.17-2.87-.09-2-.13-3.93-.14-5.91s0-3.83.1-5.74c0-.85.06-1.71.12-2.56a12.85,12.85,0,0,1,.74-4.67c.11-.6.24-1.2.4-1.8a10.94,10.94,0,0,1,.42-2.27,4.4,4.4,0,0,1,3-3,4.33,4.33,0,0,1,2.26,0,4.22,4.22,0,0,1,1.38.67,4,4,0,0,1,1.62,1.6,8.3,8.3,0,0,1,.61,1.36c.05.22.1.44.14.66a4.16,4.16,0,0,1,1.62.55,4.59,4.59,0,0,1,2,2.54,8.88,8.88,0,0,1,.29,2.27c0,.39.07.79.1,1.18.07.87.16,1.74.24,2.61.15,1.55.35,3.09.55,4.63.42,2.93.83,5.86,1.32,8.77,0,.28.1.56.14.84.19-1.27.37-2.55.55-3.82a36.63,36.63,0,0,1,1.1-5.8,4.65,4.65,0,0,1,.8-1.51c-.26-1.33-.56-2.65-1-4-.76-2.57-1.67-5.07-2.66-7.55a4.07,4.07,0,0,1,.42-3.28,4.27,4.27,0,0,1,2.55-2,4.18,4.18,0,0,1,1.11-.15,4.29,4.29,0,0,1,2.16.58Z" transform="translate(3)"/><path class="cls-8" d="M1389.43,1016.39c0,4.55.13,9.1.08,13.65s-.19,9.22-.47,13.82c-.29,4.76-.57,9.51-.79,14.27-.2,4.31-.47,8.61-.72,12.92-.15,2.44-.3,4.88-.57,7.31l-.15,1.13a4.29,4.29,0,0,1-1.1,1.87,4.22,4.22,0,0,1-6,0,4,4,0,0,1-1.25-3c.5-4.39.68-8.81.94-13.21.28-4.72.44-9.44.71-14.15.25-4.4.54-8.79.71-13.19.17-4.61.2-9.21.17-13.82,0-2.54,0-5.07-.06-7.6a4.25,4.25,0,0,1,8.5,0Z" transform="translate(3)"/><path class="cls-9" d="M1264.19,1118.05a5,5,0,0,1,3,1,3.81,3.81,0,0,1,.74.76,4.35,4.35,0,0,1,3.55-1.72h.15a24,24,0,0,1,5.06.9l1.2.3a38.4,38.4,0,0,0,4.26.77c3.67.32,7.35.4,10.92.47h1.56c2.74,0,5.75-.14,9.18-.45,1.1-.16,2.12-.33,3.14-.53a30.81,30.81,0,0,0,3-.8l1-.29a3.83,3.83,0,0,1,1.06-.14,5.56,5.56,0,0,1,2.22.47,3.9,3.9,0,0,1,1.18.8,4.89,4.89,0,0,1,1.15-.13,5,5,0,0,1,3.06,1,2.84,2.84,0,0,1,1.2,2.29v.34c0,1.69-.09,3.44-.24,5.16-.12,1.39-.3,2.81-.48,4.17l-.14,1.13-.18,1.47c-.36,3-.74,6-1,9-.76,7.73-1.19,14.57-1.31,20.91l0,2.75c-.13,6.33-.26,12.88,0,19.31.24,6,.53,14,.62,22.16.12,10.63.11,21.44.1,31.9,0,3.49,0,7,0,10.46,0,.9,0,1.8,0,2.7a71,71,0,0,0,.28,9.09c.11.94.24,1.88.37,2.82s.29,2.14.41,3.21l0,.49c.11,1,.23,2.07.28,3.12l.77.26c1,.38,2,.84,3,1.31a59.87,59.87,0,0,1,7.9,4.79l.85.59a2.67,2.67,0,0,1,1.24,2.14,3.07,3.07,0,0,1-1.23,2.52,5,5,0,0,1-3,1,5.15,5.15,0,0,1-3-1l-1.16-.79c-1.12-.78-2.29-1.58-3.47-2.33a36.92,36.92,0,0,0-5.45-2.56,4.52,4.52,0,0,1-.74.06,5,5,0,0,1-3-1l-.12-.1c-3.43-.72-7-1.12-10.48-1.52l-.85-.1-1.76-.18c-3.32-.35-6.76-.71-10.15-.93-5-.31-9.42-.57-14-.68-5.1-.11-10.63-.19-16.89-.25-.14.91-.31,1.83-.48,2.75l-.14.78c-.26,1.61-.48,3.31-.7,5.35-.08.84-.23,1.71-.38,2.54l-.09.52c0,.21-.07.43-.11.64a9.07,9.07,0,0,1-.84,3l-.18.33-.25.46a3.83,3.83,0,0,1-1.53,1.18,5.11,5.11,0,0,1-2.15.45,6.1,6.1,0,0,1-1.13-.11,4.36,4.36,0,0,1-2.55-1.52,2.55,2.55,0,0,1-.42-2.54,7.5,7.5,0,0,0,.69-2.22c.26-1.62.46-3.26.65-4.85l0-.18c.25-2.06.61-4.06,1-6.28,0-.13,0-.26.07-.4h-3.22c-4.68,0-9.48-.1-14.67-.28-2.84-.1-5.38-.22-7.76-.38-2.9-.19-5.76-.49-8.94-.84a4.12,4.12,0,0,1-2.55-1.52,2.7,2.7,0,0,1-.43-2.54,3.63,3.63,0,0,1,2-2l.51-.17.51-.17a5.43,5.43,0,0,1,1.13-.12,5.52,5.52,0,0,1,1.14.12l2.64.29c4.63.43,9.27.62,12.79.73,5,.16,9.52.24,13.67.25h4c0-.65,0-1.31,0-2,0-.42,0-.84,0-1.26,0-2.12,0-4.28,0-6.37v-3.64c0-7.91.18-15.14.39-22.1.11-3.36.33-6.78.54-10.08l0-.32c.26-4,.45-8,.63-11.77.11-2.44.14-4.92.16-7.32l0-2.11c0-3.74.1-7.6.21-11.39.11-4.08.32-8.19.51-11.67.13-2.59.38-5.23.62-7.78l.19-2c.67-7.32,1.64-14.74,2.58-21.91l0-.33c.7-5.29,1.6-11.06,2.84-18.13.41-2.36.72-4.31,1-6.13l.16-.88a3.29,3.29,0,0,1,1.09-1.45,5,5,0,0,1,3-1Z" transform="translate(3)"/><path class="cls-10" d="M1295,1136.3a4.25,4.25,0,0,1,4.16,3.12,72.54,72.54,0,0,1,1.55,9.71c.14,1.65.2,3.29.23,5.24l0,1.43c0,1.69.07,3.43,0,5.15-.11,5.28-.21,10.55-.31,15.84-.18,9.62-.47,19-.73,26.91-.1,3.21-.23,6.42-.35,9.63-.23,5.76-.46,11.71-.56,17.56-.14,8.66-.24,18.14-.28,29q0,6.89,0,13.77c0,4.48.17,9,.31,13.62.14,4.28.27,8.84.35,13.44,0,2.36,0,4.72,0,7.09,0,1.74-.08,3.53-.16,5.25,0,.69-.06,1.37-.08,2.06-.2,5.31-.34,10-.43,14.2a4.25,4.25,0,0,1-7.32,3,4.1,4.1,0,0,1-1.2-3v-.52a11.47,11.47,0,0,1-1.19,0,41.57,41.57,0,0,1-4.45-.32l-1.08-.12c-2.89-.29-5.86-.74-8.84-1.33s-5.94-1.27-8.39-1.84l-2.27-.54c-3.57-.84-7.26-1.71-11-2.27a155.91,155.91,0,0,0-17-.92l-6.08-.07-7.43-.1c-3.53-.06-7-.14-10.58-.22l-2.37,0-2.2-.07c-1.45,0-3-.09-4.42-.09h-.45l-3.72,0-3.74,0c-3.55,0-7.16.2-10.53.38l-1.51.07c-1.24.06-2.53.12-3.78.24l-3,.27-3,.28c-5.89.83-11.93,1.67-17.55,3.68a14.53,14.53,0,0,0-1.36.74c-.19.18-.37.36-.54.55a9.06,9.06,0,0,0-.54,1,13.84,13.84,0,0,0-.51,1.87c0,.58-.09,1.16-.12,1.75l0,.35a13.58,13.58,0,0,1-.43,3.39,4.42,4.42,0,0,1-2,2.55,4.61,4.61,0,0,1-2.24.62,2.89,2.89,0,0,1-1-.19l-.29-.12a4.38,4.38,0,0,1-1.69-1,5,5,0,0,1-1.22-2.31,9.66,9.66,0,0,1-.22-1.07l-.07-.42c-.19-1.07-.39-2.13-.59-3.21-.43-2.27-.81-4.31-1.12-6.39-.67-4.45-1.27-9.24-1.89-15.06-.2-1.88-.34-3.88-.42-5.95l-.05-1.51c-.07-1.76-.15-3.58-.16-5.38,0-4.55,0-9.09,0-13.64v-7.3c0-16.33,0-33.22.23-49.83.06-4.4.18-8.48.37-12.47.2-4.36.49-9,.89-14.78.62-8.84,1.64-17.78,2.63-26.43l.06-.54.15-1.36c.16-1.39.32-2.79.47-4.18.08-.71.16-1.43.25-2.14.18-1.49.36-3,.45-4.55l0-.39.19-3.22.06-1c0-.66.1-1.33.11-2l0-1.73c0-2.1,0-4.21,0-6.32a9.45,9.45,0,0,1,6.32-5.82h1c3.62,0,7.31.2,10.87.39l2.1.11c3.89.2,7.91.2,11.45.2h4.73c8,0,16.23,0,24.33.34,5,.2,9.78.5,14.27.79,1.92.13,3.85.24,5.77.35,2.47.14,4.94.28,7.41.45,4.29.3,9,.58,14.83.88,1.2.06,2.47.09,3.77.09,2.78,0,5.72-.13,9.54-.42,2.55-.2,5.13-.49,7.62-.78s5-.56,7.46-.76c3-.23,6-.37,9-.52,1.86-.08,3.72-.17,5.58-.28a4.08,4.08,0,0,1,2.85-2.72,3.86,3.86,0,0,1,1.08-.15Z" transform="translate(3)"/><path class="cls-5" d="M1345.79,1176.21c1.44.13,2.86.33,4.42.56a4.19,4.19,0,0,1,3-.32,4.31,4.31,0,0,1,2.56,2,4.19,4.19,0,0,1,.41,3.22,75.24,75.24,0,0,0-2.07,8.77c-.56,4.72-.72,9.44-.81,13.84-.11,5.58-.17,11-.21,15.63-.07,7.29-.07,14.71-.07,21.88v5.23c0,9.45,0,19.22.06,28.84,0,2.89.11,5.82.18,8.66,0,1.41.08,2.81.11,4.21l.16,7,.16,7c.11,5.3.28,10.69.5,16.07-2.47.08-4.93.2-7.4.4-1.28.11-2.57.23-3.85.4-2.28.29-4.67.49-7,.81a52.66,52.66,0,0,0-7.71,1,24,24,0,0,0-6.63,2.59c-2.48.37-4.94.78-7.4,1.24a30,30,0,0,0-12.19,6.73c-1-.08-2-.17-3-.29l-4-.47-4-.47c-2.37-.27-4.74-.57-7.11-.86l-2.47-.3c-.16,2.62-.27,5-.31,7.26a30,30,0,0,0-8.37-4.13c.06-1.34.15-2.7.23-4.11l-4.08-.41-.83-1.51c-.35-.59-.7-1.17-1-1.76,0-.33-.08-.66-.11-1-.1-1-.22-2-.34-3-.06-.49-.11-1-.16-1.46,2.46.23,4.88.47,7.21.71.1-1.2.21-2.41.32-3.61s.22-2.37.32-3.55q.3-3.33.62-6.66c.24-2.54.48-5.07.7-7.61.34-3.92.62-8.18.84-13,.21-4.65.35-9.38.48-14s.26-9.08.47-13.62l0-1.15c.41-9.17.84-18.64,1.34-28,.41-7.51.62-13.65.66-19.31l0-2.1c0-2.81,0-5.71,0-8.56v-.23l-.19-5.36c0-.52-.08-1.07-.14-1.59,0-.27-.07-.55-.1-.82l-.11-1.18-.12-1.18-.06-.39c-.22-1.45-.46-2.9-.72-4.34a4.43,4.43,0,0,1,.43-3.28,4.26,4.26,0,0,1,2.55-2,4.33,4.33,0,0,1,1.13-.15h.26a4.06,4.06,0,0,1,3.38-2h.18c2.45.13,4.9.22,7.35.3l1.92,0c1.48,0,3,0,4.45-.09h.17c2.71-.08,5.42-.19,8.13-.29l6-.23c2.68-.09,5.39-.11,7.91-.11h5.73c4.4,0,8.75-.11,13.19-.19h1.6c1.31,0,2.41,0,3.45.12Z" transform="translate(3)"/><path class="cls-9" d="M1166,1203.29h.38c6.79.08,12.07.14,17.46.16h7.58c2.89,0,6.69,0,10.46.09l7.91.19c3.59.09,7.17.18,10.76.25h.48c1.71,0,3.7.08,5.63.08l2.55,0c3.24-.08,6.48-.15,9.72-.26h.24a6.32,6.32,0,0,1,4.48,1.68h.34a9.62,9.62,0,0,1,1.51.13,6,6,0,0,1,3.38,1.67,2.66,2.66,0,0,1,.58,2.79c-.36,1.23-.66,2.46-1,3.69l-.08.32-.16,1-.15,1c0,.23-.08.46-.13.74l0,.13a6.83,6.83,0,0,0-.16,1.18l-.12,2.27-.13,2.27v.19c-.13,2.38-.1,4.78-.07,7.09v.18l0,1.78c0,4.81.32,10,.87,16.38.64,7.71,1.18,15.3,1.77,23.72l.07,1c.27,3.78.45,7.65.62,11.69.17,3.84.36,7.8.64,11.71.29,4.15.66,7.77,1.11,11,.24,1.82.51,3.65.78,5.47l.15,1c.27,1.89.55,3.77.81,5.66l.24,1.64c-1.14-.47-2.42-.94-3.94-1.46-2.57-.88-9-1.38-9.25-1.37a57.9,57.9,0,0,0-9.5,1.14,10.88,10.88,0,0,0-1.79.44c-3.68,1.39-7.68,2.71-10.87,5.15a83.43,83.43,0,0,0-8.82,7.2,55.18,55.18,0,0,0-8.88-2.35c-3.06-.37-6.36-.73-9.81-1.05a42.36,42.36,0,0,0-8.77-2.2c-3.1-.43-6.44-.71-10.2-.86-1.68-.15-3.36-.26-5-.37l-.39,0c-1.31-.09-2.62-.18-3.88-.29-1.57-.13-3.24-.24-5.11-.33-3-.16-6.19-.28-9.82-.37.3-4.67.52-9.25.67-13.62l.2-6,.22-6,.09-2.36,0-1.2v-.15l0-.56c.09-2.18.19-4.44.21-6.65.1-8.2.09-16.47.08-24.46V1259c0-6.06,0-12.33-.1-18.49,0-4.13-.12-8.6-.27-13.26a78.09,78.09,0,0,0-1.07-11.74,45.52,45.52,0,0,0-2.75-7.44,2.49,2.49,0,0,1,.55-2.74,5.91,5.91,0,0,1,3.41-1.72,8.22,8.22,0,0,1,1.47-.14,8.31,8.31,0,0,1,2.56.4c2-.19,3.9-.36,5.84-.47,1.38-.08,2.83-.11,4.57-.11Z" transform="translate(3)"/><path class="cls-9" d="M1261.54,1325.33l-.19-.15.3,0-.11.17Z" transform="translate(3)"/><path class="cls-4" d="M1405.4,1184.14l1.28,0c4.28.1,8.56.59,12.92,1.12l1.28.16c1.81.22,3.68.46,5.52.55,2.29.12,4.32.17,6.21.17h.64c4.21,0,9.12-.06,14-.27h.44a10.7,10.7,0,0,1,1.71.15,7.7,7.7,0,0,1,2.18.77,5.24,5.24,0,0,1,2,2,9.13,9.13,0,0,1,.74,1.94,26.62,26.62,0,0,1,.46,3.9l0,.71c.06.76.1,1.52.13,2.28,0,.57,0,1.14.09,1.71.07,1.1.18,2.3.35,3.78l.25,1.51c.26,1.64.54,3.34.7,5,.18,2.06.18,4.16.18,6.2v.23q0,6.93,0,13.85c0,4.47-.12,9-.22,13.41s-.2,9.14-.22,13.72c0,3.85,0,8.93-.15,14.09-.11,4.59-.39,9.25-.65,13.75-.56,9.19-1.36,18.49-2.13,27.47-.12,1.48-.24,3-.34,4.43,2.62.26,5.29.52,7.91.75,2.37.2,4.8.31,7.22.31s4.81-.11,7.2-.31a4.33,4.33,0,0,1,3.17-1.39,4.24,4.24,0,0,1,1.11.15l.48.14.35.09a5.5,5.5,0,0,1,.81.27l1,.43c.35.26.7.52,1,.81a4.13,4.13,0,0,1,1.25,3,4.06,4.06,0,0,1-1.25,3l-.26.2a23.14,23.14,0,0,1-3.81,1.39c-.78.1-1.56.18-2.35.26-1.06.1-2.13.18-3.2.25l-.3,0c-1.78.12-3.6.14-5.36.16l-1.18,0h-.24c-.77,0-1.55,0-2.32-.09l-1.23-.06c-.83,0-1.66-.11-2.47-.19l-.88-.08c-2.17-.19-4.33-.39-6.49-.62l-.67-.07c0,1.35-.11,2.81-.22,4.25a4.48,4.48,0,0,1-1.25,3,4.26,4.26,0,0,1-6,0,4.18,4.18,0,0,1-1.24-3c.13-1.74.22-3.47.3-5.23-1.85-.23-3.7-.49-5.56-.76-4.67-.7-9.31-1.6-14.06-2.54-3.74-.74-7.53-1.54-11.2-2.32l-6.41-1.34c-2-.42-4-.81-6-1.21l-1.93-.37-1.48-.31c-1-.21-2-.42-3-.57l-4.31-.66-1.42-.14c-1.38-.14-2.82-.29-4.23-.33l-2.11-.07-2.12-.06h-.43c-.6,0-1.2,0-1.8.07l-.92,0c-4,.18-8,.7-11.82,1.21l-.58.08c-1.36.18-2.71.38-4.06.58-1.53.23-3.06.46-4.6.66l-1.1.16-2.4.34-.57.07-.57.08a4.31,4.31,0,0,1-2.15-.58,4.36,4.36,0,0,1-2-2.55,4.28,4.28,0,0,1,.44-3.28,4.07,4.07,0,0,1,2.54-2l2.51-.35,2.52-.34,1.79-.26c4.09-.59,8.32-1.19,12.5-1.7l.74-.09c1.76-.22,3.58-.44,5.37-.52l2-.09,2-.1h.82c-.49-3-.86-6.1-1.22-9.09l-.08-.67c-.5-4.15-.85-8.55-1.1-13.85-.15-3.07-.25-6.13-.36-9.2,0-1.41-.09-2.82-.14-4.22-.19-5.07-.25-9.61-.17-13.91.08-4.78.41-9.59.76-14.06.19-2.42.45-4.87.7-7.25.18-1.73.36-3.46.52-5.2l.06-.65c.22-2.47.45-4.93.67-7.4.15-1.66.25-3.36.34-5,0-.81.09-1.62.14-2.43.18-2.62.2-5.28.23-7.86,0-1.71,0-3.41.09-5.11,0-1.47.12-3,.22-4.46a31.91,31.91,0,0,1,.54-3.94c.39-2,1.8-4.38,4-5a7.52,7.52,0,0,1,1.88-.26h.18l.56,0,.48,0h.51c.39,0,.78,0,1.17,0,.86,0,1.8-.13,2.85-.26l1.49-.23c1.67-.27,3.4-.54,5.12-.67,2.18-.17,4-.25,5.7-.25Z" transform="translate(3)"/><path id="window-frame" class="cls-3" d="M1537,1322c.25-58.21-2.84-238.59,0-315s8.77-114.18-9-117-90,3-171,0-148.56-3.91-215,0c-11.44.67-11,5-11,27s-.65,43.55,0,99-1.61,152.88,1,252-13,77,116,81c60.71,1.88,121,0,182,0,54,0,87,3,98,0S1536.93,1337.79,1537,1322Zm-45-54c-1,36,3,36-72,36-87.21,0-125-1-189,0-10,.16-47,3-51-2s-2.47-23.58-3-61c-1.09-77.83.15-216,0-261s8-45,27-45,50,1,108,0,153,0,162,0c18,0,18.56-1.13,18,54s-4,153,0,216C1493.39,1226.82,1492.43,1252.64,1492,1268Z" transform="translate(3)"/></g><g id="table"><path id="leg-br" class="cls-11" d="M1870,1590c0,29,0,45.32,0,64s0,40,0,53,1,14,14,14c18.26,0,15.77-2.27,16-10s0-44.41,0-71-.4-58.49,0-85,1.81-34-15-34h-14C1869,1521,1870,1557,1870,1590Z" transform="translate(3)"/><path id="leg-bl" class="cls-11" d="M1339,1522c-21,0-9.25,8-11,75s.47,95.51,0,105c0,4.87-1.52,10.67,2,16s18.89,3.28,24,3,3.65-13.92,4-25,.35-26.37,0-42c-1-31.46-.63-45.43-2-93S1359.52,1522,1339,1522Z" transform="translate(3)"/><path id="leg-fl" class="cls-12" d="M1315,1533c-25.9,1.66-24.72,16-23,59s.94,161.28,2,175c1,13,12.23,10.89,27,10s14.28-7.62,15-19,.84-89.49,0-173C1335.72,1557.65,1337.57,1531.74,1315,1533Z" transform="translate(3)"/><path id="leg-fr" class="cls-12" d="M1924,1699c-.84-40.91.11-80.49-1-125s2.22-45.17-13-45-22.21.48-22,5c2.46,52.71,1,59.54,1,121,0,62-.7,108.87-1,115s3,5.41,8,5,15.86.24,22,0,5.9-2.24,6-8S1924.84,1739.91,1924,1699Z" transform="translate(3)"/><path class="cls-13" d="M1436,1435c-111.28,1-95.59-13-138,66-28.58,53.24-38.29,57.35,38.7,59,46.63,1,84.78,1,238.46,1s293.57,2,339.14,0-19.76-86-29.3-106-33.17-19.94-166-21S1527.17,1434.18,1436,1435Z" transform="translate(3)"/></g><g id="desktop"><path id="desktop-stand" class="cls-14" d="M1693.75,1414.53a30,30,0,0,1,.07,5c.12,0,5,29.47-9.44,33.11s-39.9,11.72-24,17.45,20.48,3,46.42,3.3,49.17,7.21,59-3.49-26.1-13-29.72-18.17-3.87-11.37-4.14-19.81,1.3-11.16,2.56-17.12C1722.85,1415.21,1693.75,1414.53,1693.75,1414.53Z" transform="translate(3)"/><path id="desktop-back" class="cls-15" d="M1834.42,1309.29c-.75-10.24-.08-31.64-4.37-35.06-4.85-3.45-15.2-2.62-39.92-2.31-27.71.34-100.84.45-107.33.36-18.84.79-36.89-.35-55.84.15-14.69.38-45-.67-48.57,1.27-6.79,4.33-4.13,29.39-4.55,48.45-.61,27.24.55,54.19.77,66.46.88,12.81-.23,22.08-.13,38.79s5.77,16,22.5,16.59,27.64-1.39,40.77-.87c18.68.23,38.12.89,58-.07s38.17.94,58,.37c15.84-.5,33.89-.33,43.74-.76s34.84,2.21,35.31-3.69c1.4-17.89,2.66-37,1.58-49.07S1835.16,1319.52,1834.42,1309.29Z" transform="translate(3)"/><path id="desktop-screen" class="cls-16" d="M1823.1,1307c-.22-25.88.89-24.51-23.5-25.66-14.56-.69-36.24.71-68.08.24s-82.23-1.42-111.61-.46-36.79-1.85-35.2,23.09c.93,14.56.37,33.21.36,51.85s.53,37.28-.32,51.82c-.76,12.92-1.68,25.83,9.38,25.64s58.66.92,92.27.09c43.56-.56,83.84-1.36,127.47-1.68,8.9-2.12,8.27-9.83,8.32-20.82C1822.51,1349.58,1823.21,1321.05,1823.1,1307Z" transform="translate(3)"/></g><g id="tech-stuff"><path id="mouse" class="cls-15" d="M1851,1494c-12.51,1.94-13,14.6-9,25,3.46,9,12.22,16.11,24,15,13.79-1.3,13.24-13.32,8-24-4.39-9-13.07-16.91-21.86-16h0Z" transform="translate(3)"/><path id="keyboard" class="cls-17" d="M1814,1504c-7.68-19.3-20.33-13.54-69-14-49.16-.47-85.38.24-107,0s-38.87-2.52-46,16-11.21,21.07-8,27,42,3.08,64,4c24,1,51.8.43,108,0s52.36,1,63,0S1821.68,1523.3,1814,1504Z" transform="translate(3)"/></g><g id="laptop"><path id="laptop-back" class="cls-15" d="M1410.24,1358.19c-18.19,8.22-35,15.56-46,20s-14.48,4.87-17.85,10c-4,11.51-1.87,15.93-1.55,36.42s1.54,30.12,1.69,44-1.09,23.3,2.18,30.15,33.7-9.48,57.08-22.51,44.56-24.89,57.68-29.18c6-2,6.92-2.91,7.27-8.46.41-6.55-.36-19.51-.13-48.13.17-20.75-.38-33-.62-41.29-.37-12.75-1.37-14.43-8.55-11.93C1449.57,1341.43,1428.43,1350,1410.24,1358.19Z" transform="translate(3)"/><path id="laptop-screen" class="cls-16" d="M1464.89,1410.91c-.32-12.58-.2-20.08-.33-40.55s1.24-29.86-7.52-26c-13.31,5.85-36.8,15.38-52.1,22.29s-34.75,15.92-43.13,19.94-9.37,3.63-10.38,7.28.24,12.62,1.15,25.88-.1,36.89.71,51.9.24,23.14,15.11,14.79,66.27-32.77,83.49-40S1465.63,1439.39,1464.89,1410.91Z" transform="translate(3)"/><path id="laptop-base" class="cls-17" d="M1442.51,1454c-19.34,10.45-32,14.7-72.36,34.51-20.17,9.91-19.52,12.65-14,16.53s16,8.89,27.57,15.14,23.65,13.38,35.47,19.07,23.36,10,37.93,2.11c29.15-15.71,83.09-49.56,94.12-57.13s3.41-10.54-30.66-22.26-39-15.45-47.4-17.2S1463.88,1442.24,1442.51,1454Z" transform="translate(3)"/><path id="laptop-keyboard" class="cls-14" d="M1424,1469.9c-18.24,8.15-35.68,17.08-45,22.38s19.11,15.61,27.37,19.11,20.53,9.19,26.33,8.74,7.84-2.17,16.36-6.6,16.07-9.16,30.86-18.39,22.66-12.33,34.39-18.85c6-2.87,8-5.19-2.49-10.07a205.34,205.34,0,0,0-23.33-9.54c-11.47-4.18-22.08-8.44-28.37-5S1442.25,1461.75,1424,1469.9Z" transform="translate(3)"/><path id="trackpad" class="cls-18" d="M1471.86,1504.43c-12.54,6.33-3.71,7.33,3.93,11.16h0c3,.85,4.68,3.73,9,3.22s15.76-8.07,21.31-11.48,13.87-6,9.9-7.82-14.43-7.75-19.44-8.15S1484.4,1498.1,1471.86,1504.43Z" transform="translate(3)"/></g><g id="desk-chair"><path id="chair" class="cls-19" d="M1636.37,1388.17c-.6,0-1.26,0-2.09.09a72.47,72.47,0,0,0-9.2,1.5l-2.49.53-.64.14-.6.13-.64.14-.62.13-.3.06-1.14.25-1.88.42-.42.1-.39.09c-1.16.28-2.32.55-3.49.85l-2.22.57-.46.12-1.38.36-.58.15-.28.07c-1.19.29-2.34.56-3.5.81l-3.93.76-4.26.79-4.27.8-1.53.29-.75.13-.39.07-.22,0-.2,0-.29.05-.48.09-.27,0-.6.11c-1.17.22-2.39.44-3.59.69a40.08,40.08,0,0,0-8.32,2.78c-2.87,1.29-5.94,2.94-7.78,3.92l-.16.08-.13.07a84.75,84.75,0,0,0-7.49,4.33c-2.91,1.92-5.12,3.48-7.16,5.07-2.64,2.05-5,4-7.09,5.84s-4.24,3.9-6.4,6.16l-.84.88-.12.13-.08.08-.08.08-.07.08-.09.09-.07.08-.15.15c-1.32,1.39-3,3.12-4.46,4.77-.78.87-1.55,1.81-2.14,2.53l-.1.12-.38.46c-.56.7-1.11,1.44-1.58,2.08l-.09.12-.13.18-.59.79-.67.9-.38.51c-.53.73-1.06,1.45-1.61,2.17l-.38.5-.07.13c-.77,1-1.67,2.18-2.44,3.34-2.94,4.28-6.24,9.32-8.18,14.94a45.4,45.4,0,0,0-2.08,8.72l-.13,1-.23,1.8-.23,1.74c-.25.79-.5,1.67-.74,2.63-.35,1.47-.65,2.92-.88,4l-.17.87c-.23,1.16-.48,2.39-.67,3.61s-.3,2.18-.42,3.17l0,.26-.17,1.44-.14,1.11c-.12.93-.24,1.85-.38,2.77s-.28,1.66-.43,2.48-.26,1.4-.38,2.1c-.18,1.1-.34,2.22-.48,3.33l-.17,1.18c-.21,1.5-.44,3.2-.63,4.92-.36,3.3-.51,6.65-.61,9.53l0,.34,0,.73,0,.61c0,1-.06,1.93-.11,2.89s-.12,2-.19,3l-.1,1.35c-.16,2.36-.28,5.22-.39,9,0,1.85-.15,3.68-.26,5.55l0,.29,0,.28,0,.48c-.06.88-.12,1.76-.17,2.64-.33,5.82-.35,11.69-.38,16.87v1.59c0,9.5,0,19.17,0,28.52v20.25c0,2.46,0,5,0,7.6v.42l-.22-.49-.24-.43-.23-.35-.19-.29-.18-.28-.17-.27-.18-.27-.15-.24-.07-.12c-.61-1-1.13-1.82-1.57-2.67l-1-1.87c-.17-.36-.32-.73-.47-1.1l-.26-.65-1.25-3.25-.47-1.22-.26-.71c-.53-1.36-1-2.71-1.59-4.06-.93-2.38-2-4.79-3-7.26l-.05-.12-.91-2.12c-.73-1.83-1.21-3.1-1.61-4.26-.17-.48-.33-1-.48-1.45l.13,0h.49l1.42-.15c.22,0,.46,0,.68-.06a9.25,9.25,0,0,0,1.65-.22,4.36,4.36,0,0,0,2-1,4,4,0,0,0,1.14-1.81,9.56,9.56,0,0,0,.35-1.88l0-.25a9.81,9.81,0,0,0,.08-1.08c0-.5,0-1,0-1.5a11.25,11.25,0,0,0-.23-1.66c-.07-.35-.12-.65-.16-.94l0-.28a2.67,2.67,0,0,0,0-2.64l-.22-.34c-.35-.6-.71-1.19-1.08-1.78a18.32,18.32,0,0,0-1.49-2,9.62,9.62,0,0,0-2.62-2,17.26,17.26,0,0,0-6-1.88,32.65,32.65,0,0,0-4.35-.29c-1.31,0-2.54,0-3.86.1a49.66,49.66,0,0,0-8.47,1.21,24.06,24.06,0,0,0-3.58,1.11c-2,.79-4,1.6-5.39,3.31A8,8,0,0,0,1458,1574a9.07,9.07,0,0,0-.42,2.3,8,8,0,0,0,1.16,4.94,11.9,11.9,0,0,0,5,4.38,15.42,15.42,0,0,0,3.9,1.45c.82.17,1.71.32,2.72.46a10.23,10.23,0,0,0,.32,1.7c.37,1.45.84,3,1.23,4.17l.06.19,0,.13.06.21c.3.92.6,1.84.87,2.77.68,2.3,1.33,4.64,2,7.36l.19.76.07.28,0,.19,0,.11c.53,2,1.13,4.32,1.82,6.46a84.39,84.39,0,0,0,3.07,8c.48,1.15,1,2.31,1.59,3.54a32.58,32.58,0,0,0,1.91,3.43,115.65,115.65,0,0,0,7.52,10.54l.08.1.13.18,1.42,1.83.42.56.07.08.06.09c1.54,2,3.28,4.27,5.13,6.23,1,1,2.06,2,3,2.81.71.63,1.47,1.2,2.25,1.78l.16.12.87.65c.89.66,1.77,1.24,2.61,1.77l.68.46c1,.7,2.12,1.37,3.2,2l.14.08.31.19.49.31,1.61,1,.8,1.19.5.72c.69,1,1.51,2.18,2.91,4l.58.77.59.78.09.12.06.09c1.2,1.59,2.69,3.57,4.25,5.29,1,1.1,2,2.15,3.11,3.33a45.42,45.42,0,0,0,3.58,3.15,32.33,32.33,0,0,0,8,4.59,78.49,78.49,0,0,0,8.29,2.79c1,.31,2.3.63,3.91,1l.7.15c1.14.26,2.26.51,3.45.71q1.54.23,3.12.42l.47.07,1,.14.87.11c1.6.23,3.2.44,4.81.64,3.26.45,5.79.79,8.57,1,3.15.23,6.17.32,9,.39,4.34.08,9,.09,12.72.1h5.24l2.38,0-.07,10.86v17.54q0,5,0,10.1c0,2.12,0,4.89-.29,7.57-.12,1.35-.27,2.69-.43,4v.13c-.15,1.29-.29,2.53-.4,3.77l-.05.57-.06.7,0,.48a5.55,5.55,0,0,1-.75.1,20.73,20.73,0,0,0-4.28.84,22.47,22.47,0,0,0-3.85,1.53c-1.24.57-2.33,1.12-3.34,1.69l-.59.32-.6.33c-.73.39-1.47.79-2.18,1.22l-1.2.72-.18.11-.22.13-1.57.95c-1.35.81-2.69,1.59-4,2.37l-2.49,1.46-.76.45-.32.19-.18.11-.24.14c-1.53.9-3.26,1.92-5,2.87l-.85.47c-.85.46-1.69.92-2.52,1.4s-1.6.94-2.39,1.43l-.77.48a73.82,73.82,0,0,0-6.63,4.67c-.82.64-1.69,1.35-2.75,2.26l-.68.57-.11.09-.11.09-.08.07-.12.1c-.46.39-1,.89-1.57,1.39s-1.62,1.53-2.55,2.53a39.22,39.22,0,0,0-2.83,3.49l-.35.52s-.07,0-.15,0l-1.53,0a11.72,11.72,0,0,0-5.62,1.74,15,15,0,0,0-3.25,2.64,13.43,13.43,0,0,0-3,4.62,30.33,30.33,0,0,0-1.2,3.67c-.34,1.44-.54,3-.69,4.1v.11a41.59,41.59,0,0,0-.19,6.74l0,1a73.87,73.87,0,0,0,.66,8.31,34,34,0,0,0,.84,3.81c.16.54.35,1.07.55,1.61a8.06,8.06,0,0,0,1.26,2.3,7.47,7.47,0,0,0,2,1.69,10.4,10.4,0,0,0,3,1.13c.53.12,1.13.23,2.08.38,1.27.16,2.65.29,4.21.4,1.33.07,2.65.12,4,.16h.11c.53,0,1,0,1.58,0a18.26,18.26,0,0,0,2.56-.18,12.67,12.67,0,0,0,1.83-.44,12.31,12.31,0,0,0,2.24-1,19.2,19.2,0,0,0,2.78-1.7,16.42,16.42,0,0,0,1.91-1.59,13.57,13.57,0,0,0,1.22-1.56l.23-.34a13.93,13.93,0,0,0,1.63-3.54l0-.11c.13-.36.23-.65.34-.94.28-.77.59-1.66.84-2.55a30.84,30.84,0,0,0,.76-4.12c.13-.8.22-1.4.33-2l0-.16c.2-1.15.45-2.66.61-4.09a12.66,12.66,0,0,0,0-2.33l-.05-.56a21.35,21.35,0,0,0-.53-3.64,14,14,0,0,0-1.23-3.2,16.39,16.39,0,0,0-1.51-2.28l-.27-.37-.37-.5-.36-.48h.14a10.72,10.72,0,0,0,1.21-.4l1.93-.71c1.83-.67,3.77-1.38,5.57-2.13,1.49-.61,3-1.3,4.47-2l.14-.06.65-.29.58-.25,1.42-.63.18-.08,3.63-1.62,3.07-1.37c.84-.36,1.67-.74,2.5-1.12l.61-.28.46-.2c1.09-.5,2.13-1,3.16-1.42s2.15-.83,3.22-1.22l1.07-.4.67-.23.29-.1.22-.07.22-.08.76-.25.66-.23q.79-.29,1.59-.54c1.17-.36,2.3-.76,3.56-1.27l-.1.07a29.38,29.38,0,0,0-.84,4.71,14.36,14.36,0,0,0-3.09,2.36,16.44,16.44,0,0,0-2.11,2.73,15.83,15.83,0,0,0-1.79,4.11,46.81,46.81,0,0,0-1.86,8.2l0,.22-.2,1.61-.17,1.33-.54,4.54a23.45,23.45,0,0,0-.19,3.84,20.13,20.13,0,0,0,.36,2.82,8.26,8.26,0,0,0,3.13,4.88,14,14,0,0,0,5.65,2.14l.32.06c1.13.22,2.26.43,3.4.63a69.25,69.25,0,0,1,7.63,1.62l.86.25a30.13,30.13,0,0,0,3,.78,16.06,16.06,0,0,0,2.42.22,8.35,8.35,0,0,0,5.09-1.51,14.5,14.5,0,0,0,3.7-4.48,23.45,23.45,0,0,0,1.82-4,50.13,50.13,0,0,0,1.9-7.11,42.92,42.92,0,0,0,.88-8.26,30.47,30.47,0,0,0-.79-7.41,11.57,11.57,0,0,0-.38-1.23l.66.79.93,1,.07.08c1,1.06,2.44,2.46,3.76,3.61a28.32,28.32,0,0,0,3.38,2.53l.46.29.26.17.18.11c.84.54,1.54,1,2.22,1.47l.53.36c.85.6,1.84,1.29,2.88,1.89a23.92,23.92,0,0,0,4,1.82c1.14.43,2.44.87,3.85,1.31.52.18,1.12.35,1.79.51l-.1.32-.06.46c-.27,2.4-.45,4.91-.57,7.9a56.14,56.14,0,0,0,0,7.67c.07.71.15,1.35.26,1.93a10,10,0,0,0,.77,2.27,13.58,13.58,0,0,0,2.07,3,14.8,14.8,0,0,0,3.19,2.71,25.44,25.44,0,0,0,7.38,3.1c.71.21,1.43.4,2.15.58l1.52.39.46.13.5.14a22.71,22.71,0,0,0,2.53.65,12.32,12.32,0,0,0,1.88.2,11.22,11.22,0,0,0,2.22-.27,12.59,12.59,0,0,0,2.94-1.14,19.2,19.2,0,0,0,3.47-2.35l.17-.14a18.48,18.48,0,0,0,3.13-3.13,24.28,24.28,0,0,0,2.15-3.24c.31-.56.58-1.13.86-1.71l.06-.12a15.35,15.35,0,0,0,.93-2.25,23.79,23.79,0,0,0,.84-4.39,73.79,73.79,0,0,0,.43-7.53c0-1.28-.09-2.55-.2-3.85l-.09-1a27.93,27.93,0,0,0-.83-5.49,14,14,0,0,0-1.88-4.14,13.29,13.29,0,0,0-2.5-2.72,13.89,13.89,0,0,0-2.47-1.68,25.72,25.72,0,0,0-3.21-1.46,1.44,1.44,0,0,0-.65-.14,2.67,2.67,0,0,0-1.35.39,2.62,2.62,0,0,0-1.17,1.48l-.84-.22-1.58-.31-.68-.14-1-.19-.81-.16a20.42,20.42,0,0,0-3.07-.36,10.27,10.27,0,0,0-1.7.18,10.53,10.53,0,0,0-1.81.53,4.42,4.42,0,0,0-.58.26h-1.16a19.8,19.8,0,0,0-2.31.27,3.42,3.42,0,0,0-.38-.68l-.18-.29-.1-.14a30,30,0,0,0-2.48-3.26c-.45-.5-.94-1-1.45-1.51l-.09-.09-.08-.08-1-1-1.12-1.16-.17-.18-.39-.4-.31-.32-.91-.95c-1.87-1.91-3.69-3.93-5.4-5.84l-.91-1-.16-.18-.13-.14c-1.41-1.56-2.78-3.09-4.06-4.66-1.75-2.14-3.59-4.29-5.6-6.58s-4-4.55-6.28-7.35a1.89,1.89,0,0,0-.51-.4,2,2,0,0,0,.56-1.46c-.12-5.32-.33-10.53-.62-17.31-.18-4.14-.28-8.13-.37-12v-.94l-.09-3.52c-.07-2.89-.18-5.77-.3-8.66-.05-1.25-.12-2.51-.19-3.76l0-.63c-.06-1-.11-2.08-.15-3.11l-.09-2.43,0-1.14-.18-4.53,0-.86,0-.37c0-.26,0-.53,0-.8l.22.08h.19c2.31-.07,5.07-.12,8.67-.16H1646c1.88,0,4,0,6-.15,1.58-.1,3-.25,4.45-.45,1.25-.2,2.66-.47,4.31-.83l.72-.15.73-.17.72-.16.16,0c2.27-.49,4-.86,5.73-1.15l2.43-.29h.14l.16,0,.12,0h.12c1.81-.22,3.85-.46,5.71-.78s3.7-.78,5.33-1.17l.23-.06.23-.06,1.91-.44.5-.11.5-.12.87-.19.36-.07.4-.1.41-.08,2.07-.42c.8-.16,1.61-.29,2.42-.41l.41-.07,1.2-.19a41.35,41.35,0,0,0,8.19-2.2,33.36,33.36,0,0,0,4.22-2,10,10,0,0,0,1.13-.76l.58-.43c.64-.47,1.35-1.08,1.62-1.32l.1-.07.12-.11.21-.17c.43,0,.93-.07,1.44-.13l.81-.1c1.19-.14,2.38-.29,3.57-.47a30.54,30.54,0,0,0,4-.89,23.69,23.69,0,0,0,4-1.47,36.62,36.62,0,0,0,3.68-2c2.28-1.36,4.38-2.85,6.69-4.5a155.73,155.73,0,0,0,12.75-10.41c1.71-1.54,3.7-3.34,5.68-5.33.95-1,1.93-2,2.91-3,.3-.34.58-.7.86-1.07s.38-.49.52-.65c.4-.51.77-1,1.14-1.58l.33-.46a79.66,79.66,0,0,0,4.32-6.79,73,73,0,0,0,3.57-6.84,159.41,159.41,0,0,0,6.12-15.14,59.51,59.51,0,0,0,1.75-7l0-.17.14-.68c.48-2.33.89-4.88,1.19-6.74l0-.34.06-.4.31-1.92,0-.11,0-.27c.32-1.93.69-4.18,1-6.34.31-2.44.45-4.9.6-7.63v-.13c0-.6.05-1.19.07-1.77a20.34,20.34,0,0,0,2.9-.79c.54-.17,1.09-.32,1.64-.47l.25-.06c.5-.13,1-.26,1.51-.41a11.72,11.72,0,0,0,2.07-.81,7.6,7.6,0,0,0,1.91-1.18A10.86,10.86,0,0,0,1790,1573a6.9,6.9,0,0,0,.81-1.83,8.32,8.32,0,0,0,.27-1,11.32,11.32,0,0,0,.3-3.23,12.54,12.54,0,0,0-1.24-4.68,12.14,12.14,0,0,0-2.39-3.39,14.73,14.73,0,0,0-3-2.42c-.55-.33-1.12-.62-1.7-.92l-.14-.08c-.46-.23-.92-.47-1.37-.72s-.76-.39-1.16-.57l-.51-.24c-.67-.32-1.36-.62-2-.9l-.22-.1c-.54-.23-1.07-.46-1.62-.67-.35-.13-.7-.25-1.06-.36l-.23-.08-.26-.08-.4-.14c-.59-.21-1.19-.4-1.79-.58l-.48-.16-.11,0-.39-.14-.87-.3c-.28-.09-.57-.16-.86-.23l-.3-.07-.54-.14-.88-.26-.28-.08-.31-.09-.41-.12a22.07,22.07,0,0,0-4.08-.65c-.27,0-.54,0-.82,0a17,17,0,0,0-7.27,1.93,7.36,7.36,0,0,0-1.28.81,3.68,3.68,0,0,0-1.49-.36,2.41,2.41,0,0,0-1.8.77c-.87,1-1.81,2.05-2.8,3.24a15.42,15.42,0,0,0-2.31,3.49,15,15,0,0,0-1.15,3.79,25.14,25.14,0,0,0-.36,4.28,9.72,9.72,0,0,0,1.2,4.24,12.09,12.09,0,0,0,1,1.42l.22.3.08.1.12.17.08.1a35.77,35.77,0,0,0,2.43,3,14.55,14.55,0,0,0,4.06,3.13,16.65,16.65,0,0,0,4,1.33,12.13,12.13,0,0,0,1.29.23,16.32,16.32,0,0,0-.22,2.3c0,.8-.07,1.61-.1,2.42,0,1.16-.09,2.32-.16,3.48-.09,1.5-.26,3.21-.52,5.23a54.16,54.16,0,0,1-1.83,8.42c-.82,2.64-1.83,5.16-2.81,7.49a59.61,59.61,0,0,1-4.61,8.62c-2.15,3.3-4.36,6.24-6,8.43l-.33.41c-.61.79-1.64,2.11-2.68,3.23s-2.32,2.47-3.91,4.07c-.95,1-2,1.9-2.84,2.69l-.16.14-.4.36.31-.51.24-.48.14-.38c.3-.85.6-1.67.91-2.49s.65-1.83,1-2.76l.21-.61.37-1c.6-1.72,1-3.11,1.37-4.38.74-2.68,1.41-5.58,2-8.86.22-1.06.4-2.13.57-3.19l.23-1.38c.25-1.46.47-3,.67-5l.21-1.87v-.11l0-.28,0-.24,0-.18c.22-2,.47-4.35.63-6.61.26-3.59.37-7.42.43-9.48.08-2.55.14-5.47.18-9.46,0-5.31,0-10.52,0-15.55v-6.79c0-2.09,0-4.26,0-6.48,0-1-.08-2-.14-3l0-.33-.07-1.1c-.08-1.52-.18-3-.3-4.57l0-.34,0-.19,0-.57,0-.28,0-.32,0-.4,0-.53c-.12-1.48-.23-3-.31-4.45-.13-2.28-.31-4.49-.5-6.74l0-.53c-.08-1-.15-2-.22-3l0-.48c-.07-1.12-.16-2.26-.27-3.38-.3-3-.56-5.26-.84-7.37l-.07-.61c-.11-.89-.22-1.76-.35-2.63-.19-1.23-.37-2.44-.53-3.67l-.09-.57-.17-1.28-.08-.54c-.1-.67-.19-1.33-.28-2-.12-1-.23-2.06-.33-3.08-.15-1.52-.39-3.8-.71-6.08l-.36-2.63,0-.16-.08-.52c-.22-1.65-.52-3.82-.87-6-.24-1.44-.48-2.88-.74-4.32-.18-1-.39-1.89-.62-2.89l0-.18,0-.2-.22-1-.07-.3q-1-4.58-2.14-9.15c-.82-3.38-1.55-6.12-2.31-8.61s-1.73-5.26-3.19-8.88l-.47-1.17c-.8-2-1.84-4.58-2.86-6.94a68.31,68.31,0,0,0-4-8.06c-.62-1-1.4-2.22-2.38-3.59l-.62-.86c-.78-1.11-1.58-2.25-2.44-3.39s-1.68-2.13-2.77-3.37c-.83-.95-1.74-1.84-2.67-2.75l-.12-.13-.18-.17c-1.22-1.19-2.52-2.34-3.77-3.45l-.22-.2-.09-.08-.09-.08-.09-.09-.33-.29-.47-.41-1.33-1.18-1.36-1.22-.68-.61-.64-.58-.57-.5c-1.27-1.12-2.57-2.09-3.78-3-.88-.64-2.2-1.6-3.6-2.45s-2.75-1.58-3.81-2.14a62.16,62.16,0,0,0-8-3.77c-2.56-1-5.19-1.71-7.74-2.42l-.78-.21c-1.18-.32-2.37-.67-3.55-1l-.61-.18c-1.22-.37-2.56-.67-3.54-.9l-.29-.06-.22,0-.1,0-.15,0c-2.73-.59-5.66-1.1-8.2-1.53l-1.8-.29c-.87-.13-1.73-.26-2.59-.41l-.22,0-.15,0-.29,0-.15,0c-1.3-.21-2.63-.42-3.94-.59a57.26,57.26,0,0,0-6.53-.51Z" transform="translate(3)"/></g><g id="dog"><path id="willow-main" class="cls-20" d="M1971.44,1784.23c2-2.92,6.1-4,13.53-7.15,2.94-2.14,9.14-46.31,13.74-78.54-3.18-16.52-1.17-28.18,2.78-41.7a71.35,71.35,0,0,0,3-17.56c-2.15-9.34-7.82-18.75-19.91-26.37-2.44-2.15-5-4.17-7.41-6.34-4.31-3.85-6.15-8.83-6.4-14.5a12.54,12.54,0,0,1,.09-2.12q.67-5.06,1.4-10.11a19.27,19.27,0,0,1,.41-2.27c.91-3.3,2.82-4.54,6.09-3.59a74,74,0,0,1,6.91,2.73c4.7,1.9,9.39,3.83,14.12,5.67a4.67,4.67,0,0,0,4.77-.7,8.48,8.48,0,0,1,4.87-1.23,95.09,95.09,0,0,1,10.9,1.08c2.44.37,4.8,1.24,7.21,1.79,11.55,2.63,18.54,10.28,22.91,20.78a37.7,37.7,0,0,1,3.2,14.27c0,2.41,0,4.87-2.1,6.67-.25.21-2.26,0-2.57,6.89.05.6.1,1.22.14,1.86,2.4,37.77,36.81,68,56.39,96,12.91,16.61,31.17,46.38,49.64,52.25,25.72,8.18,71.06,7.3,77,21.32-10.18-2.11-22.67.77-41.87-.38s-45.72-.77-54.17-5.76c-4.7-2.78-11.18-8.89-16-13.76-3.18,9.64-11.08,15.49-22.59,15.87h0c-3.41,9.94-12.14,6.68-38.24,6-17.28-.48-28.49,1.87-30.36-.46-1.14-1.43.52-5.76,4.12-9.12-5.92.28-9.64.39-10.65-.87-1.87-2.34,3.74-12.42,13.08-13.35,6-.6,16.39-.12,22.82-1-10.27-3.58-17.12-10.19-20.91-19a32,32,0,0,1-3.93-5,117.52,117.52,0,0,1-17.13-18.06c-7.15,28.42-11.29,54.13-11.29,54.13-1.61,8.66-2.69,13-17.32,13.38-13.49.33-19.75-.61-13.19-10.18a7.06,7.06,0,0,1,1.33-1.46C1968.79,1793.71,1966.55,1791.38,1971.44,1784.23Z" transform="translate(3)"/><g id="willow-line2"><path class="cls-21" d="M2048.39,1719.11a22.17,22.17,0,0,0-5.24,1.08,15.92,15.92,0,0,0-4.55,2.48,15.75,15.75,0,0,0-5.22,8.64,29,29,0,0,0-.48,10.53,46.33,46.33,0,0,0,2.53,10.45,52.61,52.61,0,0,0,11.28,18.18,36,36,0,0,0,8.37,6.47,28.25,28.25,0,0,0,4.79,2.09c1.68.56,3.46,1,5.27,1.59a26.61,26.61,0,0,1,2.83,1,6.7,6.7,0,0,1,2.89,2.24,6.84,6.84,0,0,1,1,3.4c0,.09,0,.35,0,.57a2.64,2.64,0,0,1-.13.68,2.93,2.93,0,0,1-.65,1.12,4.64,4.64,0,0,1-1.63,1.1,13.43,13.43,0,0,1-3,.79c-1,.17-1.94.27-2.89.35-1.91.15-3.79.2-5.67.23l-11.2,0a54.35,54.35,0,0,0-5.48.27,14.25,14.25,0,0,0-5,1.75,16.72,16.72,0,0,0-4.15,3.4,13.65,13.65,0,0,0-2.78,4.55,3.34,3.34,0,0,0-.13,2.33c.3.53,1.28.77,2.14.9a38.9,38.9,0,0,0,5.52.16c3.73-.07,7.46-.26,11.2-.31s7.47,0,11.2.11c-7.47-.12-14.92.36-22.37.84a39.56,39.56,0,0,1-5.66,0,7,7,0,0,1-1.46-.28,2.48,2.48,0,0,1-1.38-1,2.89,2.89,0,0,1-.33-1.63,6.54,6.54,0,0,1,.27-1.49,14.72,14.72,0,0,1,2.84-5,17.87,17.87,0,0,1,4.35-3.82,15.6,15.6,0,0,1,5.45-2.14,53.53,53.53,0,0,1,5.69-.49l11.19-.42c1.85-.09,3.69-.21,5.5-.42a16.24,16.24,0,0,0,5-1.17,2,2,0,0,0,.66-.48c0-.06,0-.08,0-.08h0s0,0,0-.12a3.69,3.69,0,0,0-.73-1.85c-.61-.77-2.35-1.21-4.13-1.6s-3.64-.85-5.5-1.44a31.57,31.57,0,0,1-5.47-2.36,39.7,39.7,0,0,1-9.32-7.13,52.36,52.36,0,0,1-11.94-19.71,49.58,49.58,0,0,1-2.5-11.32,32.21,32.21,0,0,1,1-11.7,18,18,0,0,1,6.7-9.82,18.87,18.87,0,0,1,11.21-3.18.8.8,0,0,1,.79.82A.81.81,0,0,1,2048.39,1719.11Z" transform="translate(3)"/></g><g id="willow-line1"><path class="cls-21" d="M2005.47,1705.84a3.94,3.94,0,0,1,.23,2.72l-.3,2.63-.63,5.27c-.43,3.51-.8,7-1.33,10.53-1,7-2,14-3.18,21s-2.35,14-3.64,20.92c-.66,3.48-1.29,7-2.08,10.43-.39,1.73-.8,3.46-1.26,5.2-.23.86-.47,1.73-.75,2.6-.14.44-.29.88-.47,1.33-.09.23-.19.46-.31.71a3,3,0,0,1-.24.4l-.17.24a3.26,3.26,0,0,1-.33.31h0l-.13.12-.48.1c-1.39.28-2.76.55-4.12.86l-2,.52-2,.61c-1.31.45-2.63.91-3.9,1.48a18.17,18.17,0,0,0-3.73,2l0,0a.15.15,0,0,1-.21,0,.15.15,0,0,1,0-.17,11.43,11.43,0,0,1,3.19-3.16,21.66,21.66,0,0,1,3.93-2.21,30.15,30.15,0,0,1,8.77-2.27l-.62.22h0a.18.18,0,0,0-.09.08l0,0,.09-.17c.06-.15.14-.32.21-.51.13-.37.26-.77.38-1.18.23-.82.44-1.66.64-2.51.4-1.69.76-3.41,1.1-5.14.66-3.45,1.36-6.91,2-10.38,1.26-6.94,2.43-13.9,3.56-20.88l3.43-20.91c.54-3.49,1.22-7,1.82-10.44l.92-5.22.46-2.61a4,4,0,0,1,1-2.54.19.19,0,0,1,.27,0Z" transform="translate(3)"/></g></g></svg>
