<?xml version="1.0" encoding="utf-8"?>
<!-- Generator: Adobe Illustrator 26.0.0, SVG Export Plug-In . SVG Version: 6.00 Build 0)  -->
<svg version="1.1" id="svg" xmlns="http://www.w3.org/2000/svg" xmlns:xlink="http://www.w3.org/1999/xlink" x="0px" y="0px"
	 viewBox="0 0 1360.1 1300" style="enable-background:new 0 0 1360.1 1300;" xml:space="preserve">
<style type="text/css">
	.st0{clip-path:url(#SVGID_00000038384190132503345350000017372622835416344453_);}
	.st1{fill:#FFDDD2;}
	.st2{fill:#CD9A8A;}
	.st3{fill:#FFFFFF;}
	.st4{fill:#A8A4B5;}
	.st5{font-family:'Unna-Bold';}
	.st6{font-size:30.2425px;}
	.st7{font-size:36.7323px;}
	.st8{letter-spacing:-1;}
	.st9{font-size:25.3647px;}
	.st10{fill:#C1BDD0;}
	.st11{font-family:'OpenSans-LightItalic';}
	.st12{font-size:57.0857px;}
	.st13{letter-spacing:-2;}
	.st14{font-size:62.9949px;}
	.st15{letter-spacing:-3;}
	.st16{display:none;fill:none;stroke:#A4AAB9;stroke-width:6;}
	.st17{fill:#75738E;}
	.st18{font-size:33.2722px;}
	.st19{letter-spacing:2;}
	.st20{display:none;fill:none;stroke:#FFFFFF;stroke-width:6;}
	.st21{fill:#BCD8E8;}
	.st22{fill:#F7F7F7;}
	.st23{fill:#B3AFC1;}
	.st24{fill:#D5D1DF;}
	.st25{fill:#F0F0F0;}
	.st26{fill:#FAFAFA;}
	.st27{fill:#E4E4E4;}
	.st28{fill:#DFA372;}
	.st29{fill:#A2A2A2;}
	.st30{fill:#FBF4DB;}
	.st31{fill:#6E6E6E;}
	.st32{fill:#F1DBC6;}
	.st33{fill:#D9C5B2;}
	.st34{fill:#945524;}
	.st35{fill:#826957;}
	.st36{fill:#947863;}
	.st37{fill:#9E806A;}
	.st38{fill:#727681;}
	.st39{fill:#A4AAB9;}
	.st40{fill:#545257;}
	.st41{fill:#9399A6;}
	.st42{fill:#838893;}
	.st43{fill:#EB5050;}
	.st44{fill:#FFC61C;}
	.st45{fill:#2FC468;}
	.st46{fill:#403E42;}
	.st47{fill:#CCCACF;}
	.st48{fill:#36200C;}
	.st49{fill:#403832;}
	.st50{fill:#73390D;}
</style>
<g>
	<defs>
		<path id="SVGID_1_" d="M100.2,68.9C221.1-39.2,490,90,666.4,76.6s398-72,545.6,143.9c130.2,190.5-15.7,340.3,31.2,549.6
			c51.4,229.8,149.7,301.3,62.6,406.1c-89.8,108.2-316.9,129.3-628.3,13.2s-389.8,19.5-566.1-118.1S51.4,764.7,77.9,570
			C100.2,405.9-69.4,220.8,100.2,68.9z"/>
	</defs>
	<clipPath id="SVGID_00000014607238269719817420000015583829884521909404_">
		<use xlink:href="#SVGID_1_"  style="overflow:visible;"/>
	</clipPath>
	<g id="background" style="clip-path:url(#SVGID_00000014607238269719817420000015583829884521909404_);">
		<rect id="wall" x="-988.9" y="-734.9" class="st1" width="3392" height="2626"/>
		<path id="floor" class="st2" d="M2404.1,936.1c-195-1-502,6-878.2-3c-51.3-1.2-100.4-1.7-152.3-0.2c-52.4,1.4-110.9,4.9-165,3.7
			c-90.6-1.6-181.1,1-271.7-1c-50.9-0.4-101.3,4.4-151.8,4.5c-91.9-1.8-181.4-0.2-273.6,2.6c-45.5,2-91.1-0.5-136.6,0.9
			c-89.2,3.3-180.2,1.4-269.7,1.2c-83.4,2.2-165-3.3-248.2-2.4c-31.7,1.4-63.3-1.2-95.2-1.4c-435.7-2-753.7,11-753.7,11l3,939
			l3393,1V936.1z"/>
	</g>
</g>
<g id="poster">
	<path id="poster-background" class="st3" d="M1007.1,133.1c6,2.3,1,34.6,0,68s1.2,56.1,0,96.8c-0.4,36.3,0.8,60.6,0,96.8
		c-0.2,25,0.9,42.8,0,68.1c-0.4,3.3,1,7.2-5,7.2c-32,0-45.7,1.5-67,0c-17.5-1.8-62-1.2-83-0.1c-11.5,0.6-54,0.1-60,0.1
		c-3.9-0.1-11.4,0.1-15,0s-4.3-5.3-4-10.8c0.5-12.6-0.2-25.4,0-38.2c0.6-34.7,0.1-65.8,0-101.6c-0.1-29.2,0.1-56.2,0-86
		c-0.1-36.2-0.7-43.8,0-93.1c0-3.3,1-7.2,4-7.2c4,0,18.8,0.2,23,0c22.2-1.1,41.9,1.4,63,0S986.5,125.2,1007.1,133.1z"/>
	<path id="pin3" class="st4" d="M788.1,462.1c-1.7,1.9-4.7,2.1-6.7,0.3c-0.1-0.1-0.2-0.2-0.3-0.3c-1.8-1.8-0.9-4.7,0-6
		c1.5-2.1,5.3-1.6,7,0c1.7,1.5,1.8,4,0.4,5.6C788.3,461.8,788.2,461.9,788.1,462.1z"/>
	<path id="pin1" class="st4" d="M783.1,152.1c1.7,2,4.3,2.2,7,0c2-1.6,2.1-4.8,1-6c-1.7-2-5.5-2.8-7-1S781.3,150.1,783.1,152.1z"/>
	<path id="pin2" class="st4" d="M993.1,152.1c-2.3-1.3-3.7-3.9-2-7c1.2-2.2,4.6-1.8,6-1c2.2,1.3,3,5,1,7
		C997.1,152.1,995.3,153.4,993.1,152.1z"/>
	<text transform="matrix(1 0 0 1 795.6506 178.4606)" class="st4 st5 st6">I</text>
	<text transform="matrix(1 0 0 1 804.9344 178.4606)" class="st4 st5 st6"> </text>
	<text transform="matrix(1 0 0 1 804.9306 178.4606)" class="st4 st5 st6">’</text>
	<text transform="matrix(1 0 0 1 811.7651 178.4606)" class="st4 st5 st6"> </text>
	<text transform="matrix(1 0 0 1 811.7706 178.4606)" class="st4 st5 st6">M </text>
	<text transform="matrix(1 0 0 1 844.7006 178.4606)" class="st4 st5 st6">J</text>
	<text transform="matrix(1 0 0 1 858.2986 178.4606)" class="st4 st5 st6"> </text>
	<text transform="matrix(1 0 0 1 858.3006 178.4606)" class="st4 st5 st6">U</text>
	<text transform="matrix(1 0 0 1 877.5799 178.4606)" class="st4 st5 st6"> </text>
	<text transform="matrix(1 0 0 1 877.5806 178.4606)" class="st4 st5 st6">S</text>
	<text transform="matrix(1 0 0 1 892.4202 178.4606)" class="st4 st5 st6"> </text>
	<text transform="matrix(1 0 0 1 892.4206 178.4606)" class="st4 st5 st6">T </text>
	<text transform="matrix(1 0 0 1 915.0706 178.4606)" class="st4 st5 st6">V</text>
	<text transform="matrix(1 0 0 1 933.9383 178.4606)" class="st4 st5 st6"> </text>
	<text transform="matrix(1 0 0 1 933.9406 178.4606)" class="st4 st5 st6">E</text>
	<text transform="matrix(1 0 0 1 950.7071 178.4606)" class="st4 st5 st6"> </text>
	<text transform="matrix(1 0 0 1 950.7006 178.4606)" class="st4 st5 st6">R</text>
	<text transform="matrix(1 0 0 1 967.7383 178.4606)" class="st4 st5 st6"> </text>
	<text transform="matrix(1 0 0 1 967.7405 178.4606)" class="st4 st5 st6">Y</text>
	<text transform="matrix(1 0 0 1 792.4606 266.0806)" class="st4 st5 st7 st8">I</text>
	<text transform="matrix(1 0 0 1 803.3487 266.0806)" class="st4 st5 st7"> </text>
	<text transform="matrix(1 0 0 1 803.3506 266.0806)" class="st4 st5 st7">’</text>
	<text transform="matrix(1 0 0 1 813.2309 266.0806)" class="st4 st5 st7"> </text>
	<text transform="matrix(1 0 0 1 813.2307 266.0806)" class="st4 st5 st7">V</text>
	<text transform="matrix(1 0 0 1 836.1011 266.0806)" class="st4 st5 st7"> </text>
	<text transform="matrix(1 0 0 1 836.1006 266.0806)" class="st4 st5 st7">E G</text>
	<text transform="matrix(1 0 0 1 888.4802 266.0806)" class="st4 st5 st7"> </text>
	<text transform="matrix(1 0 0 1 888.4807 266.0806)" class="st4 st5 st7">O</text>
	<text transform="matrix(1 0 0 1 913.0578 266.0806)" class="st4 st5 st7"> </text>
	<text transform="matrix(1 0 0 1 913.0506 266.0806)" class="st4 st5 st7">T </text>
	<text transform="matrix(1 0 0 1 940.5706 266.0806)" class="st4 st5 st7">T</text>
	<text transform="matrix(1 0 0 1 960.248 266.0806)" class="st4 st5 st7"> </text>
	<text transform="matrix(1 0 0 1 960.2407 266.0806)" class="st4 st5 st7">O</text>
	<text transform="matrix(1 0 0 1 795.2206 364.3606)" class="st4 st5 st6">W</text>
	<text transform="matrix(1 0 0 1 823.2822 364.3606)" class="st4 st5 st6"> </text>
	<text transform="matrix(1 0 0 1 823.2807 364.3606)" class="st4 st5 st6">H</text>
	<text transform="matrix(1 0 0 1 844.8255 364.3606)" class="st4 st5 st6"> </text>
	<text transform="matrix(1 0 0 1 844.8306 364.3606)" class="st4 st5 st6">A</text>
	<text transform="matrix(1 0 0 1 862.4472 364.3606)" class="st4 st5 st6"> </text>
	<text transform="matrix(1 0 0 1 862.4406 364.3606)" class="st4 st5 st6">T</text>
	<text transform="matrix(1 0 0 1 878.8923 364.3606)" class="st4 st5 st6"> </text>
	<text transform="matrix(1 0 0 1 795.2206 387.6906)" class="st4 st5 st9">M</text>
	<text transform="matrix(1 0 0 1 818.0997 387.6906)" class="st4 st5 st9"> </text>
	<text transform="matrix(1 0 0 1 818.1006 387.6906)" class="st4 st5 st9">A</text>
	<text transform="matrix(1 0 0 1 834.1822 387.6906)" class="st4 st5 st9"> </text>
	<text transform="matrix(1 0 0 1 834.1806 387.6906)" class="st4 st5 st9">K</text>
	<text transform="matrix(1 0 0 1 850.616 387.6906)" class="st4 st5 st9"> </text>
	<text transform="matrix(1 0 0 1 850.6207 387.6906)" class="st4 st5 st9">E</text>
	<text transform="matrix(1 0 0 1 864.9007 387.6906)" class="st4 st5 st9"> </text>
	<text transform="matrix(1 0 0 1 864.9007 387.6906)" class="st4 st5 st9">S</text>
	<text transform="matrix(1 0 0 1 877.5329 387.6906)" class="st4 st5 st9"> </text>
	<text transform="matrix(1 0 0 1 795.2206 411.0305)" class="st4 st5 st9">T</text>
	<text transform="matrix(1 0 0 1 809.0189 411.0305)" class="st4 st5 st9"> </text>
	<text transform="matrix(1 0 0 1 809.0207 411.0305)" class="st4 st5 st9">H</text>
	<text transform="matrix(1 0 0 1 826.3531 411.0305)" class="st4 st5 st9"> </text>
	<text transform="matrix(1 0 0 1 826.3506 411.0305)" class="st4 st5 st9">I</text>
	<text transform="matrix(1 0 0 1 834.3353 411.0305)" class="st4 st5 st9"> </text>
	<text transform="matrix(1 0 0 1 834.3306 411.0305)" class="st4 st5 st9">N</text>
	<text transform="matrix(1 0 0 1 850.6144 411.0305)" class="st4 st5 st9"> </text>
	<text transform="matrix(1 0 0 1 850.6207 411.0305)" class="st4 st5 st9">G</text>
	<text transform="matrix(1 0 0 1 866.6505 411.0305)" class="st4 st5 st9"> </text>
	<text transform="matrix(1 0 0 1 866.6507 411.0305)" class="st4 st5 st9">S</text>
	<text transform="matrix(1 0 0 1 796.3106 447.9305)" class="st4 st5 st6 st8">–</text>
	<text transform="matrix(1 0 0 1 809.3083 447.9305)" class="st4 st5 st6"> </text>
	<text transform="matrix(1 0 0 1 809.3106 447.9305)" class="st4 st5 st6 st8">W</text>
	<text transform="matrix(1 0 0 1 834.8624 447.9305)" class="st4 st5 st6"> </text>
	<text transform="matrix(1 0 0 1 834.8607 447.9305)" class="st4 st5 st6">A</text>
	<text transform="matrix(1 0 0 1 853.8951 447.9305)" class="st4 st5 st6"> </text>
	<text transform="matrix(1 0 0 1 853.8906 447.9305)" class="st4 st5 st6 st8">L</text>
	<text transform="matrix(1 0 0 1 867.8598 447.9305)" class="st4 st5 st6"> </text>
	<text transform="matrix(1 0 0 1 867.8607 447.9305)" class="st4 st5 st6">T </text>
	<text transform="matrix(1 0 0 1 890.5106 447.9305)" class="st4 st5 st6">D</text>
	<text transform="matrix(1 0 0 1 909.0483 447.9305)" class="st4 st5 st6"> </text>
	<text transform="matrix(1 0 0 1 909.0506 447.9305)" class="st4 st5 st6">I</text>
	<text transform="matrix(1 0 0 1 918.3618 447.9305)" class="st4 st5 st6"> </text>
	<text transform="matrix(1 0 0 1 918.3607 447.9305)" class="st4 st5 st6">S</text>
	<text transform="matrix(1 0 0 1 932.9092 447.9305)" class="st4 st5 st6"> </text>
	<text transform="matrix(1 0 0 1 932.9106 447.9305)" class="st4 st5 st6">NE</text>
	<text transform="matrix(1 0 0 1 969.9634 447.9305)" class="st4 st5 st6"> </text>
	<text transform="matrix(1 0 0 1 969.9706 447.9305)" class="st4 st5 st6">Y</text>
	<path class="st10" d="M800.6,186.1h178.6c3.2,0,5.7,2.6,5.7,5.7v34.9c0,3.2-2.6,5.7-5.7,5.7H800.6c-3.2,0-5.7-2.6-5.7-5.7v-34.9
		C794.9,188.6,797.4,186.1,800.6,186.1z"/>
	<path class="st10" d="M800.7,274.2h178.4c3.2,0,5.8,2.6,5.8,5.8v49.2c0,3.2-2.6,5.8-5.8,5.8H800.7c-3.2,0-5.8-2.6-5.8-5.8V280
		C794.9,276.8,797.5,274.2,800.7,274.2z"/>
	<text transform="matrix(1 0 0 1 800.2106 224.5305)" class="st3 st11 st12">curious</text>
	<text transform="matrix(1 0 0 1 801.3506 324.2805)" class="st3 st11 st12 st13">fi</text>
	<text transform="matrix(1 0 0 1 828.1706 324.2805)" class="st3 st11 st12 st8">n</text>
	<text transform="matrix(1 0 0 1 859.0876 324.2805)" class="st3 st11 st12 st13"> </text>
	<text transform="matrix(1 0 0 1 858.8106 324.2805)" class="st3 st11 st12 st13">d</text>
	<text transform="matrix(1 0 0 1 889.0535 324.2805)" class="st3 st11 st12 st13"> </text>
	<text transform="matrix(1 0 0 1 900.3106 324.2805)" class="st3 st11 st12 st8">o</text>
	<text transform="matrix(1 0 0 1 930.6221 324.2805)" class="st3 st11 st12 st13"> </text>
	<text transform="matrix(1 0 0 1 929.7607 324.2805)" class="st3 st11 st12">u</text>
	<text transform="matrix(1 0 0 1 961.0086 324.2805)" class="st3 st11 st12 st13"> </text>
	<text transform="matrix(1 0 0 1 960.7206 324.2805)" class="st3 st11 st12">t</text>
	<path class="st10" d="M895.6,347.3h83.3c3.3,0,6,2.7,6,6v53.3c0,3.3-2.7,6-6,6h-83.3c-3.3,0-6-2.7-6-6v-53.3
		C889.6,350,892.3,347.3,895.6,347.3z"/>
	<text transform="matrix(1 0 0 1 895.3006 402.8305)" class="st3 st11 st14">t </text>
	<text transform="matrix(1 0 0 1 913.4706 402.8305)" class="st3 st11 st14 st15">i</text>
	<text transform="matrix(1 0 0 1 924.4367 402.8305)" class="st3 st11 st14"> </text>
	<text transform="matrix(1 0 0 1 924.8106 402.8305)" class="st3 st11 st14 st8">c</text>
	<text transform="matrix(1 0 0 1 951.9894 402.8305)" class="st3 st11 st14"> </text>
	<text transform="matrix(1 0 0 1 950.7606 402.8305)" class="st3 st11 st14 st8">k</text>
	<text transform="matrix(1.29 0 0 1 978.4111 402.8301)" class="st3 st11 st14">.</text>
	<path id="poster-outer" class="st16" d="M1007.1,133.1c6,2.3,1,34.6,0,68s1.2,56.1,0,96.8c-0.4,36.3,0.8,60.6,0,96.8
		c-0.2,25,0.9,42.8,0,68.1c-0.4,3.3,1,7.2-5,7.2c-32,0-45.7,1.5-67,0c-17.5-1.8-62-1.2-83-0.1c-11.5,0.6-54,0.1-60,0.1
		c-3.9-0.1-11.4,0.1-15,0s-4.3-5.3-4-10.8c0.5-12.6-0.2-25.4,0-38.2c0.6-34.7,0.1-65.8,0-101.6c-0.1-29.2,0.1-56.2,0-86
		c-0.1-36.2-0.7-43.8,0-93.1c0-3.3,1-7.2,4-7.2c4,0,18.8,0.2,23,0c22.2-1.1,41.9,1.4,63,0S986.5,125.2,1007.1,133.1z"/>
</g>
<g id="lanyard">
	<path class="st10" d="M998.9,453.1c1.5,3.8,2.7,7.7,3.5,11.6c0.6,2.9,1.1,5.7,1.4,8.7c0.4,3.3,0.6,6.8,0.7,10.2c0.2,3,0.2,6,0.2,9
		s-0.1,6.2-0.2,9.2c-0.8,40.7-5.4,81.2-11.7,121.3c-2.4,18.8-10,8.7-5.7-3.9c6.1-39.4,10.8-79.2,11.3-119.2c0.1-2.5,0.1-5,0.1-7.5
		c0-2.7-0.1-5.3-0.2-7.9c0-1.8-0.2-3.5-0.3-5.3c-0.2-2-0.4-4-0.7-5.9c-0.2-1.7-0.6-3.3-0.9-5c-0.6-2.3-1.3-7.6-1.9-9.8
		c-0.7-2.4-3.8-3-4.8,0.2c-0.6,1.6-1,6.2-1.4,7.9s-0.7,3.3-1,5c-0.4,2.5-0.7,5-1.1,7.6c-0.6,4.3-0.9,8.8-1.2,13.3
		c-0.4,6.1-0.7,12.2-1,18.2c-2.2,39.8,3.2,79.7,1.3,119.6c0,7.4-6,7.5-6,0c0-12.3-0.9-24.5-1.1-36.7c0-30.7-1.8-61.3,0.2-91.9
		c0.4-6.9,0.8-13.7,1.4-20.5c0.2-3,0.6-5.9,1-8.8c0.3-2.8,0.8-5.6,1.4-8.2c0.5-2.7,1.2-5.3,2-7.9c0.5-1.4,1.1-2.8,1.8-4.1
		C989.6,446.6,996.7,447.3,998.9,453.1z"/>
	<path class="st4" d="M985.8,616.2c10.2-0.6,20-1.3,24.9,0.8s4.7,22.7,4.8,26.3s0.8,8.1-3.7,8.2s-11.1,0.3-23.2,0.5
		s-16.2,0.6-22.6,0.9s-5.9-5.9-7.1-16.9s-2.3-17.1,4-17.6S975.5,616.8,985.8,616.2z"/>
	<text transform="matrix(1 0 0 1 965.5606 645.0906)" class="st17 st5 st18 st19">R</text>
	<text transform="matrix(1 0 0 1 988.0516 645.0906)" class="st17 st5 st18"> </text>
	<text transform="matrix(1 0 0 1 988.0506 645.0906)" class="st17 st5 st18">A</text>
	<path id="pin4" class="st4" d="M992.1,455.1c-2.5,0.7-3.8,2.6-3,6c0.6,2.4,3,4,6,3c2.5-0.8,3-3.8,2-6S994.6,454.4,992.1,455.1z"/>
	<path id="lanyard-outer" class="st20" d="M985.8,616.2c10.2-0.6,20-1.3,24.9,0.8s4.7,22.7,4.8,26.3s0.8,8.1-3.7,8.2
		s-11.1,0.3-23.2,0.5s-16.2,0.6-22.6,0.9s-5.9-5.9-7.1-16.9s-2.3-17.1,4-17.6S975.5,616.8,985.8,616.2z"/>
</g>
<g id="city">
	<rect x="171.3" y="181.3" class="st21" width="346.6" height="403.5"/>
	<path class="st4" d="M509.5,578.1H403.1c0,0-9.7-180.2,9.7-178.4s39.4-0.9,61.8,1s35,1,35,1L509.5,578.1z"/>
	<path id="cloud_2" class="st22" d="M537.3,224c-1.8-25-32.2-56.8-57-39.3c-11.2-15.4-42.4-21.1-52.9-2.5
		c-13.2-8.7-35.6-10.3-46.3,3.1c-9-5.3-18.6-4.8-21,7c-74.1-8.9-37.3,80.4,11,47.3c14.6,16.1,42.7,18.3,57.9,2.5
		c14.3,15.1,45.4,23,58.5,3.5c8,8,24.2,15.7,36.2,8.6c8.5-4.5,11.9-9.9,11.2-19.2C537.3,231.5,537.7,228.4,537.3,224z"/>
	<path class="st10" d="M415.5,588.7c6-66.9,8.8-181.4,9-198.3s0.8-18.6-0.9-19.6c-0.6-0.4-2,0.1-2.8-0.8s-0.3-2.2-0.4-5.4
		c0-11.6-0.1-27.7-0.3-35.4c-0.2-9.9-7.5-4.9-9.2-7.6s-0.8-8.1-2.2-11.3c-1.5-3.5-6.2-1.9-7-3.7c-1.6-3.5,5.6-27.1-5.9-29.3
		c-1-3.5-0.7-27.8-1.8-36c-0.4-1.8-2.6-1.5-2.8-0.8c-0.8,3-1.7,24.7-1.3,37.2l0,0c-1,0.2-4.2-0.2-5.7,2.5s0.3,20.4-0.5,26.3
		c-9.8-0.2-9.8,4.6-10.1,8.3s0.7,6.3-1,7.8s-6.1-1.6-6.9,6.8c-0.7,7.1-2.2,20.8-2.9,31.4c-0.1,2-0.2,5.9-2.3,5.7
		c-3.8-0.3-3.4,2.1-3.5,7.4c-0.2,6.8-1.8,44.8-2.3,57.4c-2.2,51.2-4.9,104.2-2.3,154.7C345.5,586.3,416.4,588.5,415.5,588.7z"/>
	<path id="cloud" class="st22" d="M287.2,268.2c13.4-0.1,28.1,5.9,34,19.5c13.4-10,26.3,7.8,28.4,21.4c17.3-9.8,34.6,9.1,26.7,26.3
		c-5,9.8-17.2,12.3-26.6,7.3c-9.9,11-32.6,4.1-43.4-3.6c-11.5,1.2-23.2,0.6-34.5-1.8c-5.2-0.9-9.4-3.5-14.5-1.3
		c-8.1,1.7-16.5,2.8-24.4,2.3c-10.2-0.8-19.5-3.8-29.7-2.6c-49.6-0.1-25.2-38.8-5.9-36.5c6.7-10,19.7-14.6,31.5-14.7
		c7.4-12.5,26.1-14.2,39.2-10.7C272.3,269.5,281.1,268.1,287.2,268.2L287.2,268.2z"/>
	<path class="st23" d="M275.3,383.1c1.5,0,21.3,1.1,28.9,1.4s16.5-0.3,22.3,0.1s5.7,4.5,5.2,8.7c-0.5,5.3-1.3,10.5-1.8,15.8
		c-2.4,23.4-1.3,41.4-0.8,65.1c0.7,21.4-15.7,115.3-15.7,115.3l-123.6-9l-14-74.3c0,0,86.7-40.1,88.8-73.3
		c1.5-15.8,3.7-30.2,6.5-46.5C271.1,384.3,273.3,383.1,275.3,383.1L275.3,383.1z"/>
	<path class="st24" d="M310.2,410.5c-0.4,6.1-1.5,61.1-0.7,102c0.1,4.3-71-105.7-45.3-105.8c2.7,0,5.5-0.1,8.2-0.2
		C284.8,406.4,310.7,403.7,310.2,410.5z"/>
	<path class="st4" d="M369.3,469.5c-0.7,15-2.2,64-1.6,94.8c0.1,4.3,0.2,11.2,0.2,11.2l-77.9-0.6c0,0,1.7-87-0.1-125.3
		c7.4-15.5,52-8.3,67.8-7.8S369.9,454.5,369.3,469.5z"/>
	<path class="st24" d="M464.6,453.8c-0.2,6.8,2.3,82.7-0.4,123.6c-35.8-5.3-70.7-0.7-70.7-0.7s-1-35.3-1.2-53
		c-0.3-36.2-0.7-46.3,0.2-67.4c2.2-9.4,8.4-6.8,24-7S464.8,447,464.6,453.8z"/>
</g>
<path id="window-frame" class="st3" d="M548.1,587.1c0.2-58.2-2.8-238.6,0-315s8.8-114.2-9-117s-90,3-171,0s-148.6-3.9-215,0
	c-11.4,0.7-11,5-11,27s-0.7,43.5,0,99c0.7,55.4-1.6,152.9,1,252s-13,77,116,81c60.7,1.9,121,0,182,0c54,0,87,3,98,0
	S548,602.9,548.1,587.1z M503.1,533.1c-1,36,3,36-72,36c-87.2,0-125-1-189,0c-10,0.2-47,3-51-2s-2.5-23.6-3-61
	c-1.1-77.8,0.2-216,0-261s8-45,27-45s50,1,108,0s153,0,162,0c18,0,18.6-1.1,18,54s-4,153,0,216C504.5,491.9,503.5,517.7,503.1,533.1
	z"/>
<g id="owl">
	<path class="st25" d="M226.6,387.7c-14,0.9-33.9,9.2-46.4,24.2c-6.5,7.8-19.3,28.3-22.1,49.8c-4.3,27.6,2.4,74.1,45.6,85.5
		c3,4.9,5.5,11,11.2,13.3l0,0l0,0c8.7,3,17.3-4.5,21.4-11.6c0.9-0.2,2-0.4,3.4-0.8c4.1,4,7.7,9,13,11.4l0,0c2.3,1.1,5.2,0.5,7.3-0.6
		c8.5-4.7,9-16.2,9.2-24.9c23.3-17.7,24.2-45.8,15.5-71.5c-1.3-4.4-3.6-8.4-2.5-13.1c1.6-13.3-0.3-26.8-5.4-39.2
		C270.9,389.8,244.8,386.7,226.6,387.7L226.6,387.7z"/>
	<path class="st26" d="M168.2,475.3c-0.5,0.1-0.9,0.5-1.1,0.9c-0.1,0.2-0.2,0.4-0.3,0.6c-0.1,0.3-0.1,0.5-0.2,0.8
		c0,0.4,0,0.8,0.1,1.2c0,0.5,0.1,1,0.1,1.4c0.1,0.7,0.1,1.5,0.2,2.2c0.1,1.4,0.3,2.8,0.5,4.3c-0.7,0-1.3,0.6-1.4,1.3c0,1,0,2,0,3
		c0,0.3,0,0.6,0.1,0.9c0,0.5,0.1,1,0.1,1.6c0.1,1,0.3,2.1,0.5,3.1c0.1,0.5,0.3,1,0.4,1.6l0.8,2.5c0.2,0.8,0.6,1.6,0.8,2.4
		c0.2,0.6,0.4,1.1,0.6,1.7c0.6,1.6,1.2,3.2,1.9,4.9c0.3,0.7,0.5,1.3,0.8,2c0.4,0.9,0.8,1.8,1.2,2.6c0.3,0.6,0.6,1.2,1,1.9
		s0.7,1.3,1,1.9c0.7,1.4,1.6,2.8,2.4,4.1l0.7,1c0.3,0.4,0.6,0.7,0.9,1.1c0.5,0.6,1.1,1.2,1.6,1.8c1.1,1.2,2.3,2.3,3.5,3.5
		c0.5,0.5,1.1,1,1.7,1.4c0.9,0.7,1.8,1.3,2.7,1.9c0.5,0.3,1,0.5,1.5,0.7c0.4,0.2,0.9,0.2,1.4,0.1c0.7-0.1,1.2-0.7,1.2-1.4
		c0-0.3,0-0.6-0.2-0.8c-0.2-0.3-0.3-0.6-0.6-0.8c-0.7-0.8-1.4-1.7-2.2-2.5c-1-1.1-2-2.3-2.9-3.5l-1.4-1.8c-1.1-1.5-2.2-3-3.2-4.5
		c-0.6-1-1.3-1.9-1.9-2.9c-0.8-1.3-1.6-2.6-2.3-3.9s-1.2-2.5-1.8-3.8c-0.2-0.7-0.5-1.3-0.8-1.9s-0.6-1.4-0.8-2.1
		c-0.5-1.4-1-2.8-1.5-4.2c-1-3-1.9-6.1-2.5-9.2c-0.2-1.3-0.5-2.7-0.6-4c-0.1-1-0.2-2.1-0.3-3.1c0.4,1.1,0.8,2.2,1.2,3.3
		c0.5,1.5,1,3,1.6,4.5l1.6,4.5c0.2,0.5,0.4,1,0.6,1.5l1.3,3c0.2,0.5,0.4,1,0.6,1.4l1.2,2.4c0.6,1.3,1.2,2.6,1.9,3.8
		c0.9,1.8,1.8,3.5,2.7,5.2c0.7,1.4,1.4,2.7,2.2,4.1c1.3,2.5,2.7,5.1,4.2,7.6c0.8,1.4,1.7,2.9,2.5,4.3c0.5,0.9,1,1.8,1.6,2.6
		s1.3,1.8,2,2.7c0.7,0.9,1.6,1.7,2.5,2.5c1.8,1.5,3.8,2.7,6,3.4c1,0.4,2.1,0.6,3.2,0.6c0.5,0,1.1,0,1.6-0.1c0.6-0.1,1.2-0.4,1.7-0.8
		c0.8-0.8,1.3-1.8,1.4-2.9c0.1-0.5,0.1-1,0-1.5c-0.1-0.7-0.1-1.3-0.3-2c-0.2-1.1-0.5-2.1-0.8-3.2s-0.7-2.3-1.2-3.4
		c-0.3-0.7-0.6-1.4-0.8-2.2c-0.4-0.9-0.8-1.9-1.2-2.9c-0.6-1.5-1.2-3-1.8-4.5l-0.6-1.5l0,0c-1-2.4-2-4.8-2.9-7.3l1.9,2.9
		c1.8,2.8,3.7,5.5,5.6,8.3c1.7,2.5,3.4,5,5.2,7.5c0.5,0.7,1.1,1.4,1.6,2.2s1,1.2,1.5,1.8c0.9,1.1,1.8,2.1,2.8,3
		c0.4,0.4,0.8,0.7,1.3,0.9c0.3,0.1,0.6,0.2,0.9,0.4c0.3,0.1,0.6,0.1,0.9,0.2h0.2c0.2,0,0.5,0,0.7-0.1c0.3-0.1,0.6-0.2,0.9-0.3
		c0.6-0.2,1.1-0.6,1.5-1c0.8-0.7,1.4-1.6,1.8-2.6c0.2-0.5,0.3-1.1,0.4-1.6c0.1-0.6,0.1-1.2,0.1-1.8c0-0.9-0.1-1.8-0.2-2.8
		c-0.2-1.5-0.4-3-0.7-4.5c-0.1-0.5-0.2-0.9-0.3-1.4c-0.1-0.6-0.2-1.3-0.4-1.9c0.6,0.5,1.2,1.1,1.8,1.6l1.2,1.2l2.2,2.2l1.5,1.5
		c0.5,0.5,1,1,1.5,1.5c1.3,1.2,2.7,2.4,4.1,3.6s2.6,2.1,3.9,3.2c1.3,1,2.7,1.7,4.1,2.3c1.5,0.6,3,1.1,4.5,1.4
		c1.7,0.4,3.4,0.8,5.2,1.2c0.4,0.1,0.8,0.1,1.2-0.1c0.3-0.2,0.6-0.5,0.8-0.8c0.2-0.7-0.2-1.5-0.9-1.7c0,0-0.1,0-0.1,0
		c-1.3-0.3-2.5-0.6-3.8-0.9c-2-0.5-4-1.1-6-1.8c-1.2-0.5-2.3-1.2-3.3-1.9l-1.4-1.1l0.3,0.2c-2.4-2-4.8-4-7.1-6.2
		c-1.3-1.2-2.6-2.5-3.8-3.8c-0.9-0.9-1.8-1.8-2.7-2.7c-0.4-0.3-0.8-0.7-1.2-1c-0.4-0.3-0.8-0.6-1.3-0.9c-1-0.6-2.3-0.6-3.4,0
		c-0.4,0.3-0.7,0.8-0.8,1.3c0,0.4,0,0.8,0,1.3c0.1,0.7,0.2,1.5,0.4,2.2l0.5,2.5c0.3,1.4,0.4,2.8,0.6,4.2c0.1,1.2,0.1,2.5,0,3.7
		c-0.1,0.4-0.2,0.7-0.4,1.1c-0.2,0.3-0.4,0.6-0.6,0.8c-0.2,0.2-0.5,0.4-0.7,0.6c-0.1,0.1-0.3,0.2-0.5,0.2h-0.1h-0.1
		c-0.2-0.1-0.4-0.2-0.6-0.3c-1.4-1.3-2.7-2.6-3.8-4.1c-0.9-1.1-1.7-2.3-2.5-3.4l-2.8-4.1c-1.8-2.7-3.7-5.4-5.5-8
		c-0.9-1.3-1.7-2.6-2.6-4c-0.8-1.2-1.6-2.4-2.3-3.6c-0.8-1.4-1.7-2.8-2.5-4.2s-1.5-2.9-2.3-4.4c-0.2-0.5-0.4-0.9-0.6-1.4
		s-0.4-0.9-0.6-1.4c-0.1-0.2-0.2-0.4-0.3-0.6c-0.2-0.3-0.4-0.6-0.7-0.8c-0.5-0.3-1.1-0.3-1.6-0.1c-0.6,0.3-0.9,0.9-0.8,1.6
		c0.5,1.6,0.8,3.2,1.2,4.8s0.9,3,1.4,4.5c1,2.9,2.1,5.8,3.2,8.8c0.7,1.7,1.4,3.4,2.1,5.2s1.4,3.3,2,5c0.6,1.5,1.2,3,1.8,4.4
		c0.4,1,0.7,2,1.1,3c0.7,1.9,1.2,3.9,1.5,5.9c0,0.5,0,1,0,1.5c-0.1,0.2-0.1,0.5-0.2,0.7l-0.1,0.1l-0.2,0.1l-0.4,0.1
		c-0.5,0-0.9,0-1.4-0.1c-0.8-0.2-1.6-0.4-2.4-0.7c-1.2-0.5-2.3-1.2-3.4-2c-1.1-0.9-2.1-1.9-2.9-2.9c-1.3-1.8-2.5-3.7-3.6-5.6
		c-0.8-1.3-1.6-2.7-2.4-4l-2.6-4.7c-0.7-1.3-1.4-2.7-2.1-4c-0.6-1.2-1.2-2.3-1.8-3.5c-0.8-1.5-1.6-3-2.3-4.5l-2.4-5
		c-0.6-1.3-1.2-2.7-1.7-4c-0.2-0.5-0.4-1.1-0.7-1.6c-0.9-2.7-1.9-5.5-2.9-8.2c-0.5-1.3-0.9-2.6-1.4-3.9c-0.3-0.9-0.7-1.8-1-2.7
		c-0.3-0.9-0.7-1.8-1.1-2.7c-0.2-0.5-0.5-0.9-0.8-1.3c-0.3-0.4-0.7-0.7-1.2-0.9c-0.2-0.1-0.5-0.2-0.8-0.2c-0.1,0-0.3,0-0.4,0
		L168.2,475.3z M180.1,520.1c-0.2-0.2-0.3-0.5-0.4-0.8l-0.6-1l0,0c0.2,0.3,0.3,0.5,0.5,0.8l1.1,1.7c0.3,0.5,0.7,1,1.1,1.5l0.2,0.3
		l-0.7-0.9C180.8,521.2,180.4,520.7,180.1,520.1L180.1,520.1z M203.9,522.2l0.1,0.2C204,522.3,204,522.2,203.9,522.2z M223.2,532.8
		l0.1,0.1L223.2,532.8z M223.9,532.8h-0.1H223.9z M223.3,532.8h0.2H223.3z M223.8,532.8L223.8,532.8z M207.6,537.8h-0.1H207.6z"/>
	<path class="st26" d="M198.9,439.5c12.2,15.3,28.7,17,35.8,24.8c10-9,34.8-12,37.1-35.9s-21.1-28.5-35.2-20
		c-4.6-3.8-10-8.4-24.1-5.8C198.8,405.2,186.7,424.2,198.9,439.5z"/>
	<path class="st27" d="M338.1,545.7c-28.2-23.1-26.5-70.2-65.7-84.1s-68,6.9-64.4,10.7c25.3,37.4,86.8,67.5,109.3,74.7
		S344.8,551.2,338.1,545.7z"/>
	<path class="st27" d="M159.9,499.2c3.7,23.5,23.5,46.6,48.2,48.2c12.2,1.9,24.6,1.4,36.8,1.6c1.8-0.3,5.3,1.1,5.4-1.6
		c-0.4-2.3-3.4-1.2-5-1.5c-15-0.2-30.3,0.3-45-3h0.1c-19.1-4.8-32.6-23.4-37.3-41.7c-0.2-1.4,0.2-3.8-1.8-3.7
		C160.6,497.6,159.9,498.3,159.9,499.2L159.9,499.2z M163.5,503.3v0.1V503.3z"/>
	<path class="st28" d="M260,558.9L260,558.9c-0.6,0.3-1.3,0.6-2,0.8c-0.3,0.1-0.7,0.2-1,0.3c-0.3,0.1-0.5,0.1-0.8,0.1
		c-1.1,0.1-2.3-0.1-3.3-0.5l-0.2-0.1c-0.2,0.4-0.3,0.7-0.5,1c-0.2,0.4-0.5,0.7-0.7,1c-0.8,0.7-1.6,1.3-2.5,1.8
		c-0.4,0.2-0.8,0.4-1.2,0.6l-0.3,0.1l0,0H247c-0.6,0.1-1.2,0.2-1.7,0.4c-0.8,0.2-1.6,0.6-2.3,1c-1,0.6-1.9,1.4-2.5,2.4
		c-0.8,1-1.3,2.2-1.6,3.5c-0.1,0.9-0.1,1.9,0.1,2.8c0.1,0.7,1.1,1.1,1.9,1h0.3c0.4-0.1,0.8-0.3,1.1-0.7c0.2-0.3,0.3-0.7,0.2-1.1
		l-0.1-0.4c-0.1-0.5-0.1-1,0-1.5c0.1-0.5,0.3-1.1,0.6-1.6c0.4-0.6,0.8-1.1,1.2-1.6c0.3-0.3,0.6-0.5,0.9-0.8c0.3-0.2,0.7-0.3,1.1-0.5
		h0.1c0.2,0,0.4,0,0.6,0c0.3,0,0.5-0.1,0.8-0.2l0.4-0.2h0.4c-0.1,0.2-0.2,0.5-0.2,0.7c-0.2,0.6-0.3,1.2-0.4,1.8
		c-0.2,0.9-0.3,1.7-0.2,2.6v0.2c0,1,0.3,2,0.8,2.8c0.4,0.5,1,0.8,1.7,0.7c0.2,0,0.5-0.1,0.7-0.2c0.4-0.2,0.8-0.5,0.9-1
		c0.1-0.3,0-0.7-0.2-0.9l-0.1-0.1c-0.2-0.5-0.3-1-0.3-1.5c-0.1-0.5-0.1-0.9,0-1.4c0.1-0.5,0.2-1,0.3-1.6c0.1-0.6,0.3-1.2,0.6-1.8
		c0.1-0.1,0.2-0.2,0.2-0.3c0.1-0.1,0.2-0.1,0.2-0.2c0.4-0.2,0.8-0.4,1.2-0.6c0.1,0,0.1-0.1,0.2-0.1l-0.1,0.3c-0.1,0.5-0.2,1-0.2,1.5
		c0,0.8,0.2,1.7,0.4,2.5c0.2,0.6,0.4,1.1,0.8,1.6c0.3,0.5,0.7,1,1.2,1.3c0.3,0.2,0.7,0.5,1,0.7l0.2,0.1c0.3,0.2,0.6,0.3,0.8,0.5
		c0.3,0.2,0.7,0.2,1,0.2c0.6,0,1.1-0.3,1.4-0.7c0.2-0.3,0.3-0.6,0.2-1c-0.1-0.4-0.4-0.8-0.8-1c-0.2-0.1-0.5-0.2-0.7-0.4
		c-0.4-0.2-0.7-0.5-1-0.8c-0.2-0.3-0.4-0.7-0.6-1c-0.2-0.5-0.3-1.1-0.4-1.7c-0.1-0.4-0.1-0.8,0-1.2c0-0.2,0-0.3,0.1-0.5
		c0.1-0.3,0.2-0.7,0.4-1c0.3-0.2,0.6-0.4,0.7-0.8c0.4-1.2,0.7-2.2,1-3.3c0.2-0.7,0.3-1.4,0.3-2.2c0-0.2,0-0.4,0-0.6L260,558.9z"/>
	<path class="st28" d="M214.8,560.5L214.8,560.5c-0.3,0.4-0.6,0.8-0.9,1.2c-0.5,0.7-1.1,1.3-1.7,2c-0.3,0.3-0.6,0.5-0.9,0.7
		c-0.3,0.1-0.5,0.3-0.8,0.4c-0.3,0.1-0.6,0.1-0.8,0.2h-0.1c-0.7-0.1-1.3-0.2-2-0.2h-0.6c-0.3,0-0.6,0-0.9,0c-0.4,0-0.9,0.1-1.3,0.1
		h-0.1c-0.6,0.1-1.2,0.3-1.8,0.4c-0.7,0.2-1.4,0.5-2,0.8c-1.2,0.6-2.3,1.3-3.2,2.3c-1.5,1.3-2.7,3-3.4,4.9c-0.1,0.4-0.1,0.8,0.1,1.1
		c0.2,0.3,0.6,0.6,1,0.7c0.2,0,0.4,0,0.6,0c0.7,0,1.3-0.4,1.6-1c0.1-0.4,0.3-0.8,0.5-1.2c0.7-1,1.4-2,2.3-2.9c0.5-0.4,1-0.8,1.5-1.1
		c0.5-0.3,1.1-0.6,1.7-0.8c0.7-0.2,1.3-0.4,2-0.5h0.4h0.4c-0.5,0.4-0.9,1-1.3,1.5l-0.1,0.2c-0.3,0.4-0.5,0.9-0.8,1.3
		c-0.2,0.5-0.4,0.9-0.5,1.4c-0.2,0.6-0.3,1.1-0.3,1.6c-0.1,0.5-0.2,1.1-0.2,1.6c0.1,0.9,0.8,1.5,1.7,1.5c0,0,0,0,0,0h0.2
		c0.8,0,1.6-0.6,1.7-1.4c0-0.6,0.1-1.3,0.2-1.9c0.2-0.8,0.4-1.6,0.8-2.3c0.4-0.7,0.9-1.4,1.5-2c0.5-0.4,1-0.8,1.5-1.2
		c0.2-0.1,0.4-0.2,0.6-0.3l0.3-0.1h0.1c-0.3,0.5-0.5,1-0.7,1.6c-0.5,1.6-0.2,3.3,0.7,4.7c0.4,0.7,1,1.3,1.6,1.8
		c0.4,0.3,0.9,0.5,1.4,0.4c0.4,0,0.8-0.2,1.1-0.4c0.3-0.2,0.5-0.6,0.6-1c0-0.4-0.2-0.8-0.5-1c-0.2-0.2-0.4-0.4-0.6-0.6
		c-0.2-0.3-0.4-0.6-0.6-1c-0.2-0.4-0.3-0.8-0.4-1.2c0-0.2,0-0.5,0-0.7c0.1-0.5,0.3-0.9,0.5-1.4c0.2-0.3,0.3-0.5,0.6-0.7
		c0-0.1,0.1-0.1,0.2-0.1c0.3-0.1,0.7-0.2,1-0.2c0.3-0.1,0.7-0.2,0.9-0.5c0.7-0.4,1.4-0.8,2-1.3c0.4-0.4,0.7-0.8,1-1.3
		c0.2-0.5,0.4-0.9,0.6-1.4V563c0.2-0.6,0.3-1.2,0.4-1.8v-0.2c-0.7,0.1-1.5,0.2-2.3,0.3H219c-1.4,0-2.7-0.1-4-0.5l-0.4-0.1
		L214.8,560.5z"/>
	<path class="st29" d="M254.8,414.4c-6.9,2.1-13.8,7-15.1,14.2s3.7,13.2,11.9,12.7s11.1-7.7,10.7-13.5c-0.2-4.5-2.1-7.4-3.1-10.9
		S256.8,413.8,254.8,414.4z"/>
	<path class="st30" d="M245.8,423.5c-3.4,3.9-5.6,11.1,1.6,14.3s13.1-3.8,11.8-11.5c-0.7-4.3-2.3-6.4-3-9
		C252.4,418.6,249.2,419.6,245.8,423.5z"/>
	<path class="st31" d="M251.4,436c7.4-0.2,7.5-11.7-0.2-11.5S244,436.2,251.4,436z"/>
	<path class="st3" d="M246.6,429.5c-0.1,0.9-0.1,2.1,1.1,1.9c1-0.2,0.4-1.4,0.9-2.3c2-3.3,3.5-1.4,4.4-2.4s-0.1-1.6-2-1.6
		C248.7,425.5,246.9,427.2,246.6,429.5z"/>
	<path class="st29" d="M211.2,413.7c-2.4,5.4-5.4,10.1-5.1,16.3c1.8,16.9,29.5,10.6,21.3-5.1c-2.9-4.9-7.2-8.5-12.4-11.9
		C213.6,412.1,212.2,411.8,211.2,413.7z"/>
	<path class="st30" d="M213.3,416.5c-11.3,18.1,1.8,23.3,8.8,20c5.6-2.6,7.2-10.8-8.4-20.7C213.6,416,213.6,416.1,213.3,416.5z"/>
	<path class="st31" d="M216.2,424.3c-7.6,2.2-3.7,12,2.7,11.3c3.1-0.6,6-4.1,3.5-8.5C221,424.5,218.9,423.5,216.2,424.3z"/>
	<path class="st3" d="M213.9,429.5c1.3,0.5,1.2-1.4,2.5-2c0.9-0.4,2-0.3,2.9,0.3c0.5,0.2,1.1-0.1,1.2-0.7c0.1-0.4,0-0.9-0.4-1.1
		c-1.3-0.8-2.8-1-4.2-0.5C214.3,426.2,212.1,428.3,213.9,429.5z"/>
	<path class="st32" d="M191.4,463.1c0.4,7.2,0.9,27.5,1,32s1.1,6.1,6.2,6.2s52.2,2.6,59.9,2.7s9.8,1.4,10.2-5.7s-0.1-2.5,1-31.5
		s2.5-18.2-30.4-20.8s-40.6-1.1-45.2-1.2C188.1,444.6,190.6,447.4,191.4,463.1z"/>
	<path class="st28" d="M225.5,439.5c-0.5,0.1-0.9,0.4-1.1,0.8c-0.3,0.4-0.3,0.9-0.2,1.4c0.1,0.3,0.2,0.5,0.3,0.8
		c0.4,1.4,1,2.7,1.8,3.8c0.6,0.8,1.3,1.7,1.9,2.4l0.2,0.2l0.2,0.2l0.2,0.2l0.7,0.8c0.7,1,1.3,2.1,1.8,3.2c0.2,0.5,0.4,1.1,0.6,1.6
		l0.1,0.2c0.1,0.5,0.4,1,0.7,1.5c0.1,0.3,0.4,0.5,0.6,0.7c0.3,0.2,0.7,0.3,1.1,0.3c0.2,0,0.4,0,0.6-0.1c0.2,0,0.4-0.1,0.5-0.2
		c0.3-0.2,0.6-0.4,0.8-0.6c0.4-0.4,0.7-0.8,0.9-1.3l0.1-0.2c0.1-0.2,0.2-0.5,0.4-0.7l0.1-0.2c0.4-0.8,0.8-1.5,1.2-2.3
		c0.6-1.2,1.3-2.4,2.3-3.9c0.7-1.2,1.6-2.3,2.4-3.4l0.2-0.3l0.5-0.6c0.3-0.3,0.5-0.8,0.5-1.2c0-0.5-0.2-1-0.5-1.3
		c-0.3-0.3-0.8-0.5-1.2-0.6c-0.2,0-0.3,0-0.5,0c-0.3,0.1-0.6,0.2-0.8,0.5l-0.5,0.6c-0.1-0.1-0.3-0.2-0.4-0.2c-0.3-0.1-0.6-0.1-0.9,0
		c0-0.2-0.1-0.5-0.2-0.7c-0.4-0.7-1.2-1.1-2-0.9c-0.2,0-0.3,0.1-0.4,0.2c-0.4,0.2-0.7,0.6-0.8,1.1l-0.1,0.3
		c-0.4-0.3-0.9-0.4-1.4-0.2c-0.3,0.1-0.5,0.2-0.7,0.4l-0.2-0.6c-0.1-0.5-0.4-0.8-0.8-1.1c-0.4-0.2-0.9-0.3-1.4-0.2
		c-0.5,0.1-0.8,0.4-1.1,0.8c-0.2-0.1-0.5-0.2-0.8-0.2c-0.4-0.4-1.1-0.6-1.7-0.4c-0.2,0-0.3,0.1-0.4,0.2c-0.1,0.1-0.2,0.2-0.3,0.2
		c-0.1-0.3-0.4-0.6-0.7-0.8C226.5,439.4,226,439.3,225.5,439.5L225.5,439.5z"/>
	<path class="st33" d="M191.4,445.1c-1.4,0.3-1.6,2.2-0.5,3.2c9.9,9.5,21.7,19.8,32.2,29.6c3.7,3.4,5.6,5.3,9.1,0.7
		c12.6-10.1,24.2-16.5,35.2-28.6c0.8-0.9,1.4-2,0.6-2.9c-2-2.3-6.2,3.2-10.1,7c-9.8,9.8-20.2,14.1-30,23.8
		c-8.9-8.9-19.3-18.1-28.6-26.6C197.2,449,194.9,445.4,191.4,445.1L191.4,445.1z M249.4,461.3L249.4,461.3L249.4,461.3z
		 M224.5,479.5L224.5,479.5z"/>
	<path class="st34" d="M227.7,469.1c-9.1-0.2-10.9,14.9-0.8,15.6C239.2,485.5,237.9,468.1,227.7,469.1L227.7,469.1
		C227.8,469.1,229.1,469.3,227.7,469.1z M227.6,477.3L227.6,477.3C227.6,477.4,227.6,477.3,227.6,477.3z M227.5,477.3L227.5,477.3
		L227.5,477.3z"/>
	<path id="owl-outer" class="st16" d="M338.1,545.7c-24.2-19.9-26.4-57.4-51.3-76.4c-0.6-2.2-1.3-4.5-2-6.7
		c-1.3-4.4-3.6-8.4-2.5-13.1c1.6-13.3-0.3-26.8-5.4-39.2c-5.8-20.6-32-23.7-50.2-22.7c-14,0.9-33.9,9.2-46.4,24.2
		c-6.5,7.8-19.3,28.3-22.1,49.8c-4.3,27.6,2.4,74.1,45.6,85.5c3,4.9,5.5,11,11.2,13.3l0,0l0,0c8.7,3,17.3-4.5,21.4-11.6
		c0.9-0.2,2-0.4,3.4-0.8c4.1,4,7.7,9,13,11.4l0,0c2.3,1.1,5.2,0.5,7.3-0.6c8.5-4.7,9-16.2,9.2-24.9c2.4-1.8,4.6-3.8,6.7-6
		c16.9,9.3,32.3,16,41.4,18.9C339.7,554.3,344.8,551.2,338.1,545.7z"/>
</g>
<g id="table">
	<path id="leg-br" class="st35" d="M881.1,855.1c0,29,0,45.3,0,64s0,40,0,53s1,14,14,14c18.3,0,15.8-2.3,16-10s0-44.4,0-71
		s-0.4-58.5,0-85s1.8-34-15-34h-14C880.1,786.1,881.1,822.1,881.1,855.1z"/>
	<path id="leg-bl" class="st35" d="M350.1,787.1c-21,0-9.2,8-11,75s0.5,95.5,0,105c0,4.9-1.5,10.7,2,16s18.9,3.3,24,3s3.7-13.9,4-25
		s0.3-26.4,0-42c-1-31.5-0.6-45.4-2-93S370.6,787.1,350.1,787.1z"/>
	<path id="leg-fl" class="st36" d="M326.1,798.1c-25.9,1.7-24.7,16-23,59s0.9,161.3,2,175c1,13,12.2,10.9,27,10s14.3-7.6,15-19
		s0.8-89.5,0-173C346.8,822.7,348.6,796.8,326.1,798.1z"/>
	<path id="leg-fr" class="st36" d="M935.1,964.1c-0.8-40.9,0.1-80.5-1-125s2.2-45.2-13-45s-22.2,0.5-22,5c2.5,52.7,1,59.5,1,121
		c0,62-0.7,108.9-1,115s3,5.4,8,5s15.9,0.2,22,0s5.9-2.2,6-8S935.9,1005,935.1,964.1z"/>
	<path class="st37" d="M447.1,700.1c-111.3,1-95.6-13-138,66c-28.6,53.2-38.3,57.3,38.7,59c46.6,1,84.8,1,238.5,1s293.6,2,339.1,0
		s-19.8-86-29.3-106s-33.2-19.9-166-21S538.2,699.2,447.1,700.1z"/>
</g>
<g id="desktop">
	<path id="desktop-stand" class="st38" d="M704.8,679.6c0.2,1.7,0.2,3.3,0.1,5c0.1,0,5,29.5-9.4,33.1s-39.9,11.7-24,17.4
		s20.5,3,46.4,3.3s49.2,7.2,59-3.5s-26.1-13-29.7-18.2s-3.9-11.4-4.1-19.8s1.3-11.2,2.6-17.1C733.9,680.3,704.8,679.6,704.8,679.6z"
		/>
	<path id="desktop-back" class="st39" d="M845.5,574.4c-0.8-10.2-0.1-31.6-4.4-35.1c-4.8-3.4-15.2-2.6-39.9-2.3
		c-27.7,0.3-100.8,0.4-107.3,0.4c-18.8,0.8-36.9-0.3-55.8,0.2c-14.7,0.4-45-0.7-48.6,1.3c-6.8,4.3-4.1,29.4-4.6,48.4
		c-0.6,27.2,0.6,54.2,0.8,66.5c0.9,12.8-0.2,22.1-0.1,38.8s5.8,16,22.5,16.6s27.6-1.4,40.8-0.9c18.7,0.2,38.1,0.9,58-0.1
		s38.2,0.9,58,0.4c15.8-0.5,33.9-0.3,43.7-0.8s34.8,2.2,35.3-3.7c1.4-17.9,2.7-37,1.6-49.1S846.2,584.6,845.5,574.4z"/>
	<path id="desktop-screen" class="st40" d="M834.2,572.1c-0.2-25.9,0.9-24.5-23.5-25.7c-14.6-0.7-36.2,0.7-68.1,0.2
		s-82.2-1.4-111.6-0.5s-36.8-1.8-35.2,23.1c0.9,14.6,0.4,33.2,0.4,51.8s0.5,37.3-0.3,51.8c-0.8,12.9-1.7,25.8,9.4,25.6
		s58.7,0.9,92.3,0.1c43.6-0.6,83.8-1.4,127.5-1.7c8.9-2.1,8.3-9.8,8.3-20.8C833.6,614.6,834.3,586.1,834.2,572.1z"/>
	<path id="desktop-outer" class="st20" d="M845.5,574.4c-0.8-10.2-0.1-31.6-4.4-35.1c-4.8-3.4-15.2-2.6-39.9-2.3
		c-27.7,0.3-100.8,0.4-107.3,0.4c-18.8,0.8-36.9-0.3-55.8,0.2c-14.7,0.4-45-0.7-48.6,1.3c-6.8,4.3-4.1,29.4-4.6,48.4
		c-0.6,27.2,0.6,54.2,0.8,66.5c0.9,12.8-0.2,22.1-0.1,38.8s5.8,16,22.5,16.6s27.6-1.4,40.8-0.9c18.7,0.2,38.1,0.9,58-0.1
		s38.2,0.9,58,0.4c15.8-0.5,33.9-0.3,43.7-0.8s34.8,2.2,35.3-3.7c1.4-17.9,2.7-37,1.6-49.1S846.2,584.6,845.5,574.4z"/>
</g>
<g id="techstuff">
	<path id="mouse" class="st39" d="M862.1,759.1c-12.5,1.9-13,14.6-9,25c3.5,9,12.2,16.1,24,15c13.8-1.3,13.2-13.3,8-24
		c-4.4-9-13.1-16.9-21.9-16l0,0H862.1z"/>
	<path id="keyboard" class="st41" d="M825.1,769.1c-7.7-19.3-20.3-13.5-69-14c-49.2-0.5-85.4,0.2-107,0s-38.9-2.5-46,16
		s-11.2,21.1-8,27s42,3.1,64,4c24,1,51.8,0.4,108,0s52.4,1,63,0S832.7,788.4,825.1,769.1z"/>
</g>
<g id="laptop">
	<path id="laptop-back" class="st39" d="M421.3,623.3c-18.2,8.2-35,15.6-46,20s-14.5,4.9-17.8,10c-4,11.5-1.9,15.9-1.6,36.4
		s1.5,30.1,1.7,44s-1.1,23.3,2.2,30.2s33.7-9.5,57.1-22.5s44.6-24.9,57.7-29.2c6-2,6.9-2.9,7.3-8.5c0.4-6.6-0.4-19.5-0.1-48.1
		c0.2-20.8-0.4-33-0.6-41.3c-0.4-12.8-1.4-14.4-8.6-11.9C460.6,606.5,439.5,615.1,421.3,623.3z"/>
	<path id="laptop-base" class="st41" d="M453.6,719.1c-19.3,10.4-32,14.7-72.4,34.5c-20.2,9.9-19.5,12.7-14,16.5s16,8.9,27.6,15.1
		s23.7,13.4,35.5,19.1s23.4,10,37.9,2.1c29.2-15.7,83.1-49.6,94.1-57.1s3.4-10.5-30.7-22.3s-39-15.4-47.4-17.2
		S474.9,707.3,453.6,719.1z"/>
	<path id="laptop-keyboard" class="st38" d="M435.1,735c-18.2,8.2-35.7,17.1-45,22.4s19.1,15.6,27.4,19.1s20.5,9.2,26.3,8.7
		s7.8-2.2,16.4-6.6s16.1-9.2,30.9-18.4s22.7-12.3,34.4-18.8c6-2.9,8-5.2-2.5-10.1c-7.6-3.7-15.4-6.8-23.3-9.5
		c-11.5-4.2-22.1-8.4-28.4-5S453.3,726.8,435.1,735z"/>
	<path id="trackpad" class="st42" d="M482.9,769.5c-12.5,6.3-3.7,7.3,3.9,11.2l0,0c3,0.8,4.7,3.7,9,3.2s15.8-8.1,21.3-11.5
		c5.6-3.4,13.9-6,9.9-7.8s-14.4-7.8-19.4-8.2C502.6,756,495.5,763.2,482.9,769.5z"/>
	<path id="laptop-screen" class="st40" d="M476,676c-0.3-12.6-0.2-20.1-0.3-40.6s1.2-29.9-7.5-26c-13.3,5.8-36.8,15.4-52.1,22.3
		s-34.8,15.9-43.1,19.9s-9.4,3.6-10.4,7.3s0.2,12.6,1.2,25.9s-0.1,36.9,0.7,51.9s0.2,23.1,15.1,14.8s66.3-32.8,83.5-40
		S476.7,704.5,476,676z"/>
	<path class="st43" d="M367.1,659.8c-1.1,0-2,0.9-2,2s0.9,2,2,2s2-0.9,2-2S368.2,659.8,367.1,659.8z"/>
	<path class="st44" d="M372.2,657.2c-1.1,0-2,0.9-2,2s0.9,2,2,2s2-0.9,2-2S373.3,657.2,372.2,657.2z"/>
	<path class="st45" d="M376.8,654.7c-1.1,0-2,0.9-2,2s0.9,2,2,2s2-0.9,2-2S377.9,654.7,376.8,654.7z"/>
	<path class="st46" d="M385.1,712c-0.8-10.8-0.9-21.6-1.5-32.4c-0.3-6.1-1-12.1-1.2-18.2c0-0.5-0.5-0.9-1-0.9c-0.5,0-0.9,0.5-0.9,1
		c0.2,5.5,0.7,10.9,1.1,16.3s0.4,10.7,0.6,16.1c0.4,10.8,1.5,21.5,1.5,32.2c0,2.9,0,5.8-0.2,8.8c-0.2,3.1-0.5,6.1-0.4,9.2
		c0,0.5,0.5,0.9,1,0.9c0.5,0,0.9-0.5,0.9-1c-0.1-2.7,0.2-5.4,0.3-8.1s0.2-5.4,0.3-8.1C385.6,722.6,385.5,717.3,385.1,712z"/>
	<path class="st47" d="M376.4,670.7c-2.8-0.8-5.3-2.4-8-3.5c-0.9-0.4-1.6,0.5-1.2,1.4c1,2.7,1.9,5.4,2.6,8.2
		c0.1,0.4,0.3,0.7,0.4,1.1c0.2,0.6,1.4,1,1.8,0.1c1-2.3,2.6-4.2,4.8-5.5c0.5-0.4,0.6-1,0.2-1.5C376.8,670.9,376.6,670.8,376.4,670.7
		z M371.3,675.5c-0.6-1.8-1.1-3.7-1.7-5.5c1.5,0.7,3,1.5,4.6,2.1C373.1,673,372.1,674.2,371.3,675.5z"/>
	<path class="st47" d="M378.5,687.3c-2.8-0.8-5.3-2.4-8-3.5c-0.9-0.4-1.6,0.5-1.2,1.4c1,2.7,1.9,5.4,2.6,8.1
		c0.1,0.4,0.3,0.7,0.4,1.1c0.2,0.6,1.4,1,1.8,0.1c1-2.3,2.6-4.2,4.8-5.5c0.5-0.4,0.6-1,0.2-1.5C378.9,687.4,378.7,687.3,378.5,687.3
		z"/>
	<path class="st47" d="M376.3,701.3c-0.3-0.2-0.7-0.2-0.9,0c-0.1,0-0.2,0.1-0.2,0.2c-0.9,1.4-2.2,2.5-3.7,3.3
		c-0.2,0.1-0.3,0.3-0.2,0.5c0.1,1.5-0.6,3.8-0.7,5.3c0,0.2,0.1,0.5,0.3,0.5c0.1,0,0.2,0,0.3-0.1c0.5-0.4,1.5-2.5,2.3-3.5
		c-0.1-0.6-0.1-1.3,0.6-1.5s1,0.2,1.1,0.9c0.1,0.4-0.1,0.9-0.6,1c-0.1,0-0.3,0-0.4,0c-0.5,1-2.1,3-2.4,3.6c-0.1,0.2,0,0.5,0.2,0.6
		c0.1,0.1,0.2,0.1,0.3,0c1.3-0.5,3.2-1.7,4.6-1.9c0.2,0,0.4-0.2,0.4-0.4c0.3-1.6,1-3.1,2-4.4l0,0c0,0,0,0,0.1,0
		c0.3-0.4,0.3-0.9,0.1-1.3C378.5,703.1,377.5,702.1,376.3,701.3z"/>
	<path class="st47" d="M381.1,701.2c-1-0.7-2-1.4-2.9-2.2c-0.2-0.1-0.4-0.2-0.6-0.1c-0.2,0-0.4,0.2-0.5,0.4
		c-0.1,0.2-0.2,0.4-0.1,0.7c0.1,0.2,0.2,0.4,0.3,0.6c0.9,0.8,1.9,1.5,2.9,2.2c0.4,0.3,0.9,0.1,1.1-0.2c0,0,0,0,0,0
		C381.5,702,381.4,701.5,381.1,701.2z"/>
	<path id="laptop-outer" class="st20" d="M531.7,727.1c-34.1-11.7-39-15.4-47.4-17.2c-1.5-0.3-2.7-0.6-3.8-0.8
		c0.9-1.2,1.2-2.7,1.3-5.3c0.4-6.6-0.4-19.5-0.1-48.1c0.2-20.8-0.4-33-0.6-41.3c-0.4-12.8-1.4-14.4-8.6-11.9
		c-11.8,4.1-33,12.7-51.2,20.9s-35,15.6-46,20s-14.5,4.9-17.8,10c-4,11.5-1.9,15.9-1.6,36.4s1.5,30.1,1.7,44s-1.1,23.3,2.2,30.2
		c0.6,1.2,2.1,1.7,4.2,1.6c-0.4,1.7,1.1,3.1,3.3,4.6c5.6,3.9,16,8.9,27.6,15.1s23.7,13.4,35.5,19.1s23.4,10,37.9,2.1
		c29.2-15.7,83.1-49.6,94.1-57.1S565.8,738.8,531.7,727.1z"/>
</g>
<g id="deskchair">
	<path class="st48" d="M660.5,754.8c41,1.3,48.3-25.7,48.3-53.6s-16.3-53.1-51.7-52.5c-31.7,0.6-44.1,24.8-43.8,55.8
		C613.8,745.9,624.2,753.7,660.5,754.8z"/>
	<path class="st49" d="M829.7,852.4c0.1-9.1-5.9-12.5-23-12.2c-11.7,0.2-23.6,0-23.5,12.9c0,6.5,5.2,9.5,11.9,10.9
		c-0.5,17.7,1.1,39-21,49.6c1.4-8,2.2-16.6,3-25.8c4.5-49.1,1.3-72.2-4.2-123.1s-39.3-88.8-90-89c-11.8,0-23.5-0.5-42.6,0
		c-50.6,0-82,36.8-92,83s-8.9,102.3-5.6,134.1c1,9.6,1.8,18,3,25.5c-14.6-7.7-20.8-23.9-23.4-53.2c10.6-2.3,12.1-10.1,12.1-15.4
		c0-6.6-8.9-10.2-21.9-9.8c-13.4,0.4-20.4,5.3-20.8,12.6c-0.3,5.7,1.9,10.1,11.8,12.1c-0.9,24.9,6.9,78.2,54.5,85.2
		c11.9,13,35,18.5,83.2,19.8c-1.1,17.6-1,40.6-0.4,55.6c-19.3,5.5-49.8,25.7-54.4,35.8c-13.1-0.1-18.5,7.5-17.9,23.4
		c0.6,16.9,6.7,20.7,14.6,20.7c22.7-0.1,23.3-12.6,23-24.1c-0.2-6.2-0.8-11.1-3.7-14.5c13.2-2.3,30.9-9,42.6-15.7c0.3,2,0.8,4,1.5,6
		c-10.5,1.9-12.8,8.8-12.8,19.3c-0.1,13,0.3,20.8,17,21.6s21.4-2.9,21.5-16.9c0.1-12,1.2-20.8-10-23.6c0.9-1.7,1.6-3.4,2.1-5.2
		c8.2,12,19.4,21.5,32.6,27.6c-0.5,2.9-0.8,5.9-0.7,8.9c0.2,21.1,17.8,21.8,17.8,21.8c19.2,0.2,21.6-11.4,22.1-25.3
		s-6.4-21.8-18.4-19.5c-3.8,0.7-7.3,1.2-10.3,2.1c-10.8-22.2-21.9-35-32-39.7c0.7-15.6,0.4-39.1-0.7-58.1
		c48.8-1.2,73.5-10.4,86.4-25.3c31.5-5.4,59.7-31,56.2-79.9C825.8,862.9,829.7,857.8,829.7,852.4z"/>
</g>
<g id="dog">
	<path id="willow-main" class="st34" d="M982.5,1049.3c2-2.9,6.1-4,13.5-7.2c2.9-2.1,9.1-46.3,13.7-78.5
		c-3.2-16.5-1.2-28.2,2.8-41.7c1.7-5.7,2.7-11.6,3-17.6c-2.2-9.3-7.8-18.8-19.9-26.4c-2.4-2.2-5-4.2-7.4-6.3
		c-4.3-3.8-6.2-8.8-6.4-14.5c0-0.7,0-1.4,0.1-2.1c0.4-3.4,0.9-6.7,1.4-10.1c0.1-0.8,0.2-1.5,0.4-2.3c0.9-3.3,2.8-4.5,6.1-3.6
		c2.3,0.8,4.7,1.7,6.9,2.7c4.7,1.9,9.4,3.8,14.1,5.7c1.6,0.7,3.4,0.4,4.8-0.7c1.5-0.9,3.2-1.3,4.9-1.2c3.7,0.2,7.3,0.5,10.9,1.1
		c2.4,0.4,4.8,1.2,7.2,1.8c11.6,2.6,18.5,10.3,22.9,20.8c2,4.5,3.1,9.4,3.2,14.3c0,2.4,0,4.9-2.1,6.7c-0.2,0.2-2.3,0-2.6,6.9
		c0.1,0.6,0.1,1.2,0.1,1.9c2.4,37.8,36.8,68,56.4,96c12.9,16.6,31.2,46.4,49.6,52.2c25.7,8.2,71.1,7.3,77,21.3
		c-10.2-2.1-22.7,0.8-41.9-0.4s-45.7-0.8-54.2-5.8c-4.7-2.8-11.2-8.9-16-13.8c-3.2,9.6-11.1,15.5-22.6,15.9l0,0
		c-3.4,9.9-12.1,6.7-38.2,6c-17.3-0.5-28.5,1.9-30.4-0.5c-1.1-1.4,0.5-5.8,4.1-9.1c-5.9,0.3-9.6,0.4-10.7-0.9
		c-1.9-2.3,3.7-12.4,13.1-13.3c6-0.6,16.4-0.1,22.8-1c-10.3-3.6-17.1-10.2-20.9-19c-1.5-1.5-2.8-3.2-3.9-5
		c-6.3-5.4-12.1-11.5-17.1-18.1c-7.1,28.4-11.3,54.1-11.3,54.1c-1.6,8.7-2.7,13-17.3,13.4c-13.5,0.3-19.8-0.6-13.2-10.2
		c0.4-0.5,0.8-1,1.3-1.5C979.9,1058.8,977.6,1056.4,982.5,1049.3z"/>
	<path class="st50" d="M1059.5,984.2c-1.8,0.1-3.5,0.5-5.2,1.1c-1.6,0.6-3.2,1.4-4.6,2.5c-2.6,2.2-4.5,5.3-5.2,8.6
		c-0.8,3.5-1,7-0.5,10.5c0.4,3.6,1.3,7.1,2.5,10.4c2.5,6.8,6.3,13,11.3,18.2c2.5,2.6,5.3,4.7,8.4,6.5c1.5,0.8,3.1,1.5,4.8,2.1
		c1.7,0.6,3.5,1,5.3,1.6c1,0.3,1.9,0.6,2.8,1c1.2,0.5,2.2,1.2,2.9,2.2c0.6,1,1,2.2,1,3.4c0,0.1,0,0.3,0,0.6c0,0.2-0.1,0.5-0.1,0.7
		c-0.1,0.4-0.4,0.8-0.6,1.1c-0.5,0.5-1,0.9-1.6,1.1c-1,0.4-2,0.6-3,0.8c-1,0.2-1.9,0.3-2.9,0.3c-1.9,0.2-3.8,0.2-5.7,0.2h-11.2
		c-1.8,0-3.7,0.1-5.5,0.3c-1.8,0.3-3.5,0.9-5,1.8c-1.6,0.9-3,2.1-4.2,3.4c-1.2,1.3-2.2,2.9-2.8,4.6c-0.3,0.7-0.4,1.6-0.1,2.3
		c0.3,0.5,1.3,0.8,2.1,0.9c1.8,0.2,3.7,0.2,5.5,0.2c3.7-0.1,7.5-0.3,11.2-0.3c3.7-0.1,7.5,0,11.2,0.1c-7.5-0.1-14.9,0.4-22.4,0.8
		c-1.9,0.1-3.8,0.1-5.7,0c-0.5,0-1-0.1-1.5-0.3c-0.6-0.2-1.1-0.5-1.4-1c-0.3-0.5-0.4-1.1-0.3-1.6c0-0.5,0.1-1,0.3-1.5
		c0.6-1.8,1.6-3.5,2.8-5c1.2-1.5,2.7-2.8,4.3-3.8c1.7-1.1,3.5-1.8,5.4-2.1c1.9-0.3,3.8-0.4,5.7-0.5l11.2-0.4
		c1.9-0.1,3.7-0.2,5.5-0.4c1.7-0.1,3.4-0.5,5-1.2c0.3-0.1,0.5-0.3,0.7-0.5c0-0.1,0-0.1,0-0.1l0,0c0,0,0,0,0-0.1
		c-0.1-0.7-0.3-1.3-0.7-1.8c-0.6-0.8-2.4-1.2-4.1-1.6s-3.6-0.8-5.5-1.4c-1.9-0.6-3.7-1.4-5.5-2.4c-3.4-1.9-6.6-4.3-9.3-7.1
		c-5.4-5.6-9.5-12.3-11.9-19.7c-1.3-3.7-2.1-7.5-2.5-11.3c-0.4-3.9,0-7.9,1-11.7c1.1-3.9,3.4-7.4,6.7-9.8c3.3-2.2,7.2-3.3,11.2-3.2
		c0.4,0,0.8,0.4,0.8,0.8c0,0,0,0,0,0C1060.2,983.7,1059.9,984.1,1059.5,984.2z"/>
	<path class="st50" d="M1016.5,970.9c0.4,0.9,0.5,1.8,0.2,2.7l-0.3,2.6l-0.6,5.3c-0.4,3.5-0.8,7-1.3,10.5c-1,7-2,14-3.2,21
		s-2.3,14-3.6,20.9c-0.7,3.5-1.3,7-2.1,10.4c-0.4,1.7-0.8,3.5-1.3,5.2c-0.2,0.9-0.5,1.7-0.8,2.6c-0.1,0.4-0.3,0.9-0.5,1.3
		c-0.1,0.2-0.2,0.5-0.3,0.7c-0.1,0.1-0.1,0.3-0.2,0.4l-0.2,0.2c-0.1,0.1-0.2,0.2-0.3,0.3l0,0l-0.1,0.1l-0.5,0.1
		c-1.4,0.3-2.8,0.6-4.1,0.9l-2,0.5l-2,0.6c-1.3,0.4-2.6,0.9-3.9,1.5c-1.3,0.5-2.6,1.2-3.7,2l0,0c-0.1,0.1-0.2,0.1-0.2,0
		c0-0.1,0-0.1,0-0.2c0.8-1.3,1.9-2.3,3.2-3.2c1.2-0.9,2.5-1.6,3.9-2.2c2.8-1.2,5.7-2,8.8-2.3l-0.6,0.2l0,0c0,0-0.1,0-0.1,0.1l0,0
		l0.1-0.2c0.1-0.2,0.1-0.3,0.2-0.5c0.1-0.4,0.3-0.8,0.4-1.2c0.2-0.8,0.4-1.7,0.6-2.5c0.4-1.7,0.8-3.4,1.1-5.1
		c0.7-3.4,1.4-6.9,2-10.4c1.3-6.9,2.4-13.9,3.6-20.9l3.4-20.9c0.5-3.5,1.2-7,1.8-10.4l0.9-5.2l0.5-2.6c0-0.9,0.4-1.8,1-2.5
		C1016.4,970.8,1016.5,970.8,1016.5,970.9C1016.6,970.9,1016.6,970.9,1016.5,970.9L1016.5,970.9z"/>
	<path id="dog-outer" class="st20" d="M982.5,1049.3c2-2.9,6.1-4,13.5-7.2c2.9-2.1,9.1-46.3,13.7-78.5c-3.2-16.5-1.2-28.2,2.8-41.7
		c1.7-5.7,2.7-11.6,3-17.6c-2.2-9.3-7.8-18.8-19.9-26.4c-2.4-2.2-5-4.2-7.4-6.3c-4.3-3.8-6.2-8.8-6.4-14.5c0-0.7,0-1.4,0.1-2.1
		c0.4-3.4,0.9-6.7,1.4-10.1c0.1-0.8,0.2-1.5,0.4-2.3c0.9-3.3,2.8-4.5,6.1-3.6c2.3,0.8,4.7,1.7,6.9,2.7c4.7,1.9,9.4,3.8,14.1,5.7
		c1.6,0.7,3.4,0.4,4.8-0.7c1.5-0.9,3.2-1.3,4.9-1.2c3.7,0.2,7.3,0.5,10.9,1.1c2.4,0.4,4.8,1.2,7.2,1.8c11.6,2.6,18.5,10.3,22.9,20.8
		c2,4.5,3.1,9.4,3.2,14.3c0,2.4,0,4.9-2.1,6.7c-0.2,0.2-2.3,0-2.6,6.9c0.1,0.6,0.1,1.2,0.1,1.9c2.4,37.8,36.8,68,56.4,96
		c12.9,16.6,31.2,46.4,49.6,52.2c25.7,8.2,71.1,7.3,77,21.3c-10.2-2.1-22.7,0.8-41.9-0.4s-45.7-0.8-54.2-5.8
		c-4.7-2.8-11.2-8.9-16-13.8c-3.2,9.6-11.1,15.5-22.6,15.9l0,0c-3.4,9.9-12.1,6.7-38.2,6c-17.3-0.5-28.5,1.9-30.4-0.5
		c-1.1-1.4,0.5-5.8,4.1-9.1c-5.9,0.3-9.6,0.4-10.7-0.9c-1.9-2.3,3.7-12.4,13.1-13.3c6-0.6,16.4-0.1,22.8-1
		c-10.3-3.6-17.1-10.2-20.9-19c-1.5-1.5-2.8-3.2-3.9-5c-6.3-5.4-12.1-11.5-17.1-18.1c-7.1,28.4-11.3,54.1-11.3,54.1
		c-1.6,8.7-2.7,13-17.3,13.4c-13.5,0.3-19.8-0.6-13.2-10.2c0.4-0.5,0.8-1,1.3-1.5C979.9,1058.8,977.6,1056.4,982.5,1049.3z"/>
</g>
</svg>
